<svg width="546" height="259" viewBox="0 0 546 259" fill="none" xmlns="http://www.w3.org/2000/svg">
<path d="M58.5237 19.8582V93.2786C58.5237 93.2786 84.3943 93.2786 98.2401 92.2276C109.128 90.3213 111.133 89.2703 113.137 78.3819L117.145 62.4342H128.987L126.983 97.2869L128.034 132.995H116.094L113.137 119.051C110.179 109.129 106.171 107.112 98.2401 106.159C88.3171 105.108 58.5237 105.108 58.5237 105.108V166.687C58.5237 178.528 64.5361 183.588 78.3819 183.588H120.102C132.995 183.588 145.875 182.537 153.904 163.729L164.695 139.863H174.716C173.665 144.824 168.703 188.549 167.75 198.387C167.75 198.387 130.038 197.433 114.188 197.433H42.6738L0 198.387V187.596L13.8458 184.541C23.8665 182.537 26.8239 179.579 26.8239 171.648C26.8239 171.648 27.8748 144.824 27.8748 100.134C27.8748 55.5541 26.8239 28.718 26.8239 28.718C26.8239 19.8338 23.8665 17.8296 13.8458 15.8255L0 12.8926V2.00415L41.7206 2.85958H121.153C137.003 2.85958 163.729 0 163.729 0C163.729 0 162.776 16.8031 161.725 56.5195H150.837L146.829 42.576C142.918 24.7219 136.991 15.8377 126.017 15.8377H63.5829C58.5237 15.8499 58.5237 16.8031 58.5237 19.8582ZM219.296 27.6915H231.235V69.4121L272.002 67.4079L269.998 86.3129L230.282 83.2578V156.776C230.282 177.587 237.248 185.604 249.187 185.604C259.978 185.604 267.994 179.592 270.952 174.63L276.866 181.596C270.952 195.441 254.148 202.407 238.201 202.407C218.44 202.407 202.395 190.566 202.395 167.75V84.2966H178.712V74.3736C198.582 72.3694 213.381 60.4301 219.296 27.6915ZM304.741 155.713L312.66 174.618C315.617 182.537 322.583 190.565 338.433 190.565C355.334 190.565 362.299 181.596 362.299 170.707C362.299 136.906 295.759 146.841 295.759 101.197C295.759 75.4245 316.57 63.3874 343.394 63.3874C355.334 63.3874 373.188 65.3916 382.157 69.3999C380.153 79.3229 379.102 92.2154 379.102 102.151L369.265 103.104L362.299 83.2456C360.295 78.3819 352.279 74.3614 342.441 74.3614C330.502 74.3614 318.575 79.3229 318.575 92.2154C318.575 122.962 387.119 116.082 387.119 161.725C387.119 187.596 364.303 201.442 336.429 201.442C315.617 201.442 294.708 193.425 294.708 193.425C296.712 181.583 295.759 168.703 294.708 155.713H304.741ZM382.17 250.996C385.127 240.107 387.131 226.274 389.135 213.283L400.024 212.33L404.032 233.141C404.985 238.103 407.943 242.111 415.874 242.111C428.766 242.111 445.667 234.192 461.603 206.403C454.539 189.502 433.728 134.987 414.823 93.2664C409.861 82.2924 408.908 81.327 402.028 79.3229L396.969 77.4165V67.3957L426.848 68.4467L463.509 66.4425V76.3777L454.539 78.3819C447.573 79.3351 444.702 83.2456 444.702 87.2661C444.702 88.3171 444.702 89.2703 445.655 91.2744C447.561 97.2869 463.509 141.879 475.448 171.66C485.286 150.849 504.191 104.167 507.148 96.2359C508.199 92.2276 509.152 91.2744 509.152 88.3171C509.152 83.2578 506.195 80.3005 499.315 78.3941L492.251 76.3777V66.4547L520.126 67.4079L545.899 66.4547V76.3777L540.938 80.2883C531.015 84.2966 529.964 85.2498 526.041 93.2664L482.414 195.417C456.543 254.038 429.719 259 410.9 259C398.973 259.012 390.003 255.957 382.17 250.996Z" fill="white"/>
</svg>
