<svg width="3681" height="1074" viewBox="0 0 3681 1074" fill="none" xmlns="http://www.w3.org/2000/svg">
<mask id="path-1-outside-1_130_23" maskUnits="userSpaceOnUse" x="0" y="0" width="3681" height="1074" fill="black">
<rect fill="white" width="3681" height="1074"/>
<path d="M161.494 985.371C147.929 985.371 138.064 980.439 138.064 980.439C114.634 968.107 109.702 950.843 109.702 916.315C109.702 887.953 110.935 886.719 110.935 822.596C110.935 485.946 102.303 559.935 81.3392 520.474C78.8729 516.774 77.6398 508.142 77.6398 499.51C77.6398 478.547 82.5724 473.614 99.8365 452.65C97.3702 393.459 96.137 340.434 96.137 296.04C96.137 124.632 128.199 77.7728 307.006 77.7728C336.601 77.7728 442.652 80.2391 457.45 86.4049C478.414 96.2701 490.745 114.767 490.745 134.498C490.745 152.995 480.88 170.259 461.15 181.357C453.751 185.057 441.419 186.29 425.388 186.29C394.559 186.29 350.166 181.357 308.239 181.357C187.39 181.357 200.955 186.29 200.955 303.439C200.955 435.386 202.188 431.687 208.354 431.687C214.519 431.687 208.354 429.221 287.275 429.221C319.337 429.221 321.804 430.454 331.669 435.386C350.166 444.018 360.031 462.516 360.031 479.78C360.031 492.111 355.099 505.676 345.233 515.541C320.57 538.971 295.907 527.873 209.587 536.505C209.587 600.629 215.753 693.115 215.753 802.865C215.753 957.009 209.587 958.242 193.556 973.04C182.458 982.905 170.126 985.371 161.494 985.371ZM718.627 640.089C719.861 640.089 769.187 640.089 769.187 690.649C769.187 742.441 665.602 804.098 603.944 804.098C576.815 804.098 497.894 794.233 497.894 657.353C497.894 571.033 506.526 527.873 554.618 527.873C560.784 527.873 606.411 531.572 606.411 584.598C606.411 608.027 601.478 611.727 601.478 661.053C601.478 701.747 606.411 699.281 610.11 699.281C618.742 699.281 650.804 680.783 670.535 664.752C695.198 643.789 700.13 640.089 718.627 640.089ZM563.251 481.013C532.422 481.013 513.925 456.35 513.925 430.454C513.925 397.159 541.054 376.195 565.717 376.195C581.748 376.195 596.546 383.594 607.644 398.392C612.577 405.791 615.043 409.49 615.043 431.687C615.043 450.184 600.245 481.013 563.251 481.013ZM858.484 150.529C874.515 150.529 943.571 155.461 943.571 213.419C943.571 244.248 917.675 263.979 891.779 263.979C873.282 263.979 868.349 256.58 854.785 256.58C828.888 256.58 809.158 294.807 798.06 440.319C810.391 439.086 821.489 437.853 833.821 437.853C888.08 437.853 896.712 471.148 896.712 489.645C896.712 501.977 891.779 514.308 881.914 524.173C864.65 541.437 854.785 541.437 791.894 543.904C765.998 871.922 815.324 996.47 727.77 996.47C724.071 996.47 720.371 996.47 716.672 995.237C708.04 995.237 683.377 977.973 678.444 954.543V927.413C678.444 855.891 680.91 665.986 688.309 530.339L683.377 521.707C675.978 511.842 672.278 501.977 672.278 490.878C672.278 479.78 677.211 468.681 685.843 458.816C709.273 430.454 677.211 150.529 858.484 150.529ZM1315.13 654.887C1342.26 654.887 1363.23 675.851 1363.23 705.446C1363.23 746.14 1279.37 833.694 1141.26 833.694H1126.46C980.951 807.798 918.061 715.312 918.061 627.758C918.061 521.707 1003.15 451.417 1082.07 451.417C1142.49 451.417 1195.52 490.878 1195.52 563.634C1195.52 680.783 1066.04 695.581 1066.04 700.514C1066.04 701.747 1103.03 730.109 1157.29 730.109C1247.31 730.109 1265.81 654.887 1315.13 654.887ZM1031.51 589.53L1027.81 596.929C1045.08 595.696 1057.41 595.696 1072.2 588.297C1085.77 580.898 1091.93 571.033 1091.93 563.634C1091.93 558.701 1088.24 553.769 1080.84 553.769C1058.64 553.769 1036.44 579.665 1031.51 589.53ZM1667.98 654.887C1695.11 654.887 1716.07 675.851 1716.07 705.446C1716.07 746.14 1632.22 833.694 1494.11 833.694H1479.31C1333.8 807.798 1270.91 715.312 1270.91 627.758C1270.91 521.707 1355.99 451.417 1434.91 451.417C1495.34 451.417 1548.36 490.878 1548.36 563.634C1548.36 680.783 1418.88 695.581 1418.88 700.514C1418.88 701.747 1455.88 730.109 1510.14 730.109C1600.16 730.109 1618.65 654.887 1667.98 654.887ZM1384.36 589.53L1380.66 596.929C1397.92 595.696 1410.25 595.696 1425.05 588.297C1438.61 580.898 1444.78 571.033 1444.78 563.634C1444.78 558.701 1441.08 553.769 1433.68 553.769C1411.48 553.769 1389.29 579.665 1384.36 589.53ZM1805.02 150.529C1821.05 150.529 1890.11 155.461 1890.11 213.419C1890.11 244.248 1864.21 263.979 1838.32 263.979C1819.82 263.979 1814.89 256.58 1801.32 256.58C1775.43 256.58 1755.7 294.807 1744.6 440.319C1756.93 439.086 1768.03 437.853 1780.36 437.853C1834.62 437.853 1843.25 471.148 1843.25 489.645C1843.25 501.977 1838.32 514.308 1828.45 524.173C1811.19 541.437 1801.32 541.437 1738.43 543.904C1712.54 871.922 1761.86 996.47 1674.31 996.47C1670.61 996.47 1666.91 996.47 1663.21 995.237C1654.58 995.237 1629.92 977.973 1624.98 954.543V927.413C1624.98 855.891 1627.45 665.986 1634.85 530.339L1629.92 521.707C1622.52 511.842 1618.82 501.977 1618.82 490.878C1618.82 479.78 1623.75 468.681 1632.38 458.816C1655.81 430.454 1623.75 150.529 1805.02 150.529ZM1987.91 844.792C1979.28 844.792 1870.77 822.596 1870.77 688.182C1870.77 600.629 1910.23 579.665 1928.72 547.603C1943.52 520.474 1987.91 499.51 2032.31 499.51C2122.33 499.51 2170.42 572.266 2170.42 654.887C2170.42 767.104 2090.27 846.025 2003.95 846.025C1997.78 846.025 1992.85 844.792 1987.91 844.792ZM2065.6 657.353C2065.6 633.924 2060.67 603.095 2032.31 603.095C2019.98 603.095 2012.58 606.794 2011.34 615.426C2006.41 635.157 1973.12 638.856 1973.12 688.182C1973.12 733.809 1997.78 739.975 2003.95 739.975C2053.27 739.975 2065.6 682.016 2065.6 657.353ZM2427.62 150.529C2443.65 150.529 2512.71 155.461 2512.71 213.419C2512.71 244.248 2486.81 263.979 2460.91 263.979C2442.42 263.979 2437.48 256.58 2423.92 256.58C2398.02 256.58 2378.29 294.807 2367.2 440.319C2379.53 439.086 2390.63 437.853 2402.96 437.853C2457.22 437.853 2465.85 471.148 2465.85 489.645C2465.85 501.977 2460.91 514.308 2451.05 524.173C2433.79 541.437 2423.92 541.437 2361.03 543.904C2335.13 871.922 2384.46 996.47 2296.91 996.47C2293.21 996.47 2289.51 996.47 2285.81 995.237C2277.18 995.237 2252.51 977.973 2247.58 954.543V927.413C2247.58 855.891 2250.05 665.986 2257.44 530.339L2252.51 521.707C2245.11 511.842 2241.41 501.977 2241.41 490.878C2241.41 479.78 2246.35 468.681 2254.98 458.816C2278.41 430.454 2246.35 150.529 2427.62 150.529ZM2815.21 886.719C2800.42 886.719 2790.55 884.253 2790.55 884.253H2791.78C2728.89 864.523 2714.1 797.933 2712.86 797.933C2707.93 797.933 2673.4 841.093 2621.61 841.093C2542.69 841.093 2492.13 758.472 2492.13 649.955C2492.13 583.364 2509.39 535.272 2555.02 535.272C2592.01 535.272 2605.58 566.1 2605.58 583.364C2605.58 601.862 2596.95 614.193 2596.95 653.654C2596.95 706.679 2612.98 735.042 2620.38 735.042C2624.08 735.042 2626.54 732.576 2630.24 728.876C2685.73 675.851 2664.77 556.235 2738.76 556.235C2753.56 556.235 2768.35 562.401 2776.99 573.499C2805.35 605.561 2797.95 779.435 2821.38 779.435C2831.25 779.435 2855.91 747.373 2875.64 706.679C2887.97 683.25 2901.53 659.82 2932.36 659.82C2954.56 659.82 2982.92 675.851 2982.92 709.146C2982.92 742.441 2917.57 886.719 2815.21 886.719ZM3552.91 658.587C3572.64 658.587 3603.47 670.918 3603.47 710.379C3603.47 736.275 3515.91 913.849 3420.96 913.849C3412.33 913.849 3402.46 911.382 3393.83 908.916C3265.58 864.523 3370.4 599.395 3297.65 531.572L3286.55 541.437C3203.93 617.893 3224.89 794.233 3142.27 794.233C3121.31 794.233 3102.81 781.902 3092.94 759.705C3081.84 737.508 3086.78 621.592 3076.91 621.592C3073.21 621.592 3060.88 632.69 3052.25 642.556C2997.99 707.913 3021.42 800.399 2948.66 800.399C2915.37 800.399 2901.8 768.337 2900.57 763.404C2895.64 751.073 2889.47 641.323 2889.47 595.696C2889.47 587.064 2889.47 579.665 2890.71 577.199C2894.41 558.701 2910.44 535.272 2941.27 535.272C2964.7 535.272 2974.56 546.37 2986.89 559.935C3016.49 532.805 3041.15 515.541 3079.38 515.541C3136.1 515.541 3149.67 547.603 3158.3 547.603C3159.53 547.603 3159.53 546.37 3159.53 545.137C3159.53 541.437 3213.79 426.754 3298.88 426.754C3345.74 426.754 3429.59 457.583 3429.59 659.82V736.275C3429.59 796.699 3430.83 795.466 3432.06 795.466C3439.46 795.466 3467.82 757.239 3494.95 706.679C3509.75 682.016 3519.61 658.587 3552.91 658.587Z"/>
</mask>
<path d="M161.494 985.371C147.929 985.371 138.064 980.439 138.064 980.439C114.634 968.107 109.702 950.843 109.702 916.315C109.702 887.953 110.935 886.719 110.935 822.596C110.935 485.946 102.303 559.935 81.3392 520.474C78.8729 516.774 77.6398 508.142 77.6398 499.51C77.6398 478.547 82.5724 473.614 99.8365 452.65C97.3702 393.459 96.137 340.434 96.137 296.04C96.137 124.632 128.199 77.7728 307.006 77.7728C336.601 77.7728 442.652 80.2391 457.45 86.4049C478.414 96.2701 490.745 114.767 490.745 134.498C490.745 152.995 480.88 170.259 461.15 181.357C453.751 185.057 441.419 186.29 425.388 186.29C394.559 186.29 350.166 181.357 308.239 181.357C187.39 181.357 200.955 186.29 200.955 303.439C200.955 435.386 202.188 431.687 208.354 431.687C214.519 431.687 208.354 429.221 287.275 429.221C319.337 429.221 321.804 430.454 331.669 435.386C350.166 444.018 360.031 462.516 360.031 479.78C360.031 492.111 355.099 505.676 345.233 515.541C320.57 538.971 295.907 527.873 209.587 536.505C209.587 600.629 215.753 693.115 215.753 802.865C215.753 957.009 209.587 958.242 193.556 973.04C182.458 982.905 170.126 985.371 161.494 985.371ZM718.627 640.089C719.861 640.089 769.187 640.089 769.187 690.649C769.187 742.441 665.602 804.098 603.944 804.098C576.815 804.098 497.894 794.233 497.894 657.353C497.894 571.033 506.526 527.873 554.618 527.873C560.784 527.873 606.411 531.572 606.411 584.598C606.411 608.027 601.478 611.727 601.478 661.053C601.478 701.747 606.411 699.281 610.11 699.281C618.742 699.281 650.804 680.783 670.535 664.752C695.198 643.789 700.13 640.089 718.627 640.089ZM563.251 481.013C532.422 481.013 513.925 456.35 513.925 430.454C513.925 397.159 541.054 376.195 565.717 376.195C581.748 376.195 596.546 383.594 607.644 398.392C612.577 405.791 615.043 409.49 615.043 431.687C615.043 450.184 600.245 481.013 563.251 481.013ZM858.484 150.529C874.515 150.529 943.571 155.461 943.571 213.419C943.571 244.248 917.675 263.979 891.779 263.979C873.282 263.979 868.349 256.58 854.785 256.58C828.888 256.58 809.158 294.807 798.06 440.319C810.391 439.086 821.489 437.853 833.821 437.853C888.08 437.853 896.712 471.148 896.712 489.645C896.712 501.977 891.779 514.308 881.914 524.173C864.65 541.437 854.785 541.437 791.894 543.904C765.998 871.922 815.324 996.47 727.77 996.47C724.071 996.47 720.371 996.47 716.672 995.237C708.04 995.237 683.377 977.973 678.444 954.543V927.413C678.444 855.891 680.91 665.986 688.309 530.339L683.377 521.707C675.978 511.842 672.278 501.977 672.278 490.878C672.278 479.78 677.211 468.681 685.843 458.816C709.273 430.454 677.211 150.529 858.484 150.529ZM1315.13 654.887C1342.26 654.887 1363.23 675.851 1363.23 705.446C1363.23 746.14 1279.37 833.694 1141.26 833.694H1126.46C980.951 807.798 918.061 715.312 918.061 627.758C918.061 521.707 1003.15 451.417 1082.07 451.417C1142.49 451.417 1195.52 490.878 1195.52 563.634C1195.52 680.783 1066.04 695.581 1066.04 700.514C1066.04 701.747 1103.03 730.109 1157.29 730.109C1247.31 730.109 1265.81 654.887 1315.13 654.887ZM1031.51 589.53L1027.81 596.929C1045.08 595.696 1057.41 595.696 1072.2 588.297C1085.77 580.898 1091.93 571.033 1091.93 563.634C1091.93 558.701 1088.24 553.769 1080.84 553.769C1058.64 553.769 1036.44 579.665 1031.51 589.53ZM1667.98 654.887C1695.11 654.887 1716.07 675.851 1716.07 705.446C1716.07 746.14 1632.22 833.694 1494.11 833.694H1479.31C1333.8 807.798 1270.91 715.312 1270.91 627.758C1270.91 521.707 1355.99 451.417 1434.91 451.417C1495.34 451.417 1548.36 490.878 1548.36 563.634C1548.36 680.783 1418.88 695.581 1418.88 700.514C1418.88 701.747 1455.88 730.109 1510.14 730.109C1600.16 730.109 1618.65 654.887 1667.98 654.887ZM1384.36 589.53L1380.66 596.929C1397.92 595.696 1410.25 595.696 1425.05 588.297C1438.61 580.898 1444.78 571.033 1444.78 563.634C1444.78 558.701 1441.08 553.769 1433.68 553.769C1411.48 553.769 1389.29 579.665 1384.36 589.53ZM1805.02 150.529C1821.05 150.529 1890.11 155.461 1890.11 213.419C1890.11 244.248 1864.21 263.979 1838.32 263.979C1819.82 263.979 1814.89 256.58 1801.32 256.58C1775.43 256.58 1755.7 294.807 1744.6 440.319C1756.93 439.086 1768.03 437.853 1780.36 437.853C1834.62 437.853 1843.25 471.148 1843.25 489.645C1843.25 501.977 1838.32 514.308 1828.45 524.173C1811.19 541.437 1801.32 541.437 1738.43 543.904C1712.54 871.922 1761.86 996.47 1674.31 996.47C1670.61 996.47 1666.91 996.47 1663.21 995.237C1654.58 995.237 1629.92 977.973 1624.98 954.543V927.413C1624.98 855.891 1627.45 665.986 1634.85 530.339L1629.92 521.707C1622.52 511.842 1618.82 501.977 1618.82 490.878C1618.82 479.78 1623.75 468.681 1632.38 458.816C1655.81 430.454 1623.75 150.529 1805.02 150.529ZM1987.91 844.792C1979.28 844.792 1870.77 822.596 1870.77 688.182C1870.77 600.629 1910.23 579.665 1928.72 547.603C1943.52 520.474 1987.91 499.51 2032.31 499.51C2122.33 499.51 2170.42 572.266 2170.42 654.887C2170.42 767.104 2090.27 846.025 2003.95 846.025C1997.78 846.025 1992.85 844.792 1987.91 844.792ZM2065.6 657.353C2065.6 633.924 2060.67 603.095 2032.31 603.095C2019.98 603.095 2012.58 606.794 2011.34 615.426C2006.41 635.157 1973.12 638.856 1973.12 688.182C1973.12 733.809 1997.78 739.975 2003.95 739.975C2053.27 739.975 2065.6 682.016 2065.6 657.353ZM2427.62 150.529C2443.65 150.529 2512.71 155.461 2512.71 213.419C2512.71 244.248 2486.81 263.979 2460.91 263.979C2442.42 263.979 2437.48 256.58 2423.92 256.58C2398.02 256.58 2378.29 294.807 2367.2 440.319C2379.53 439.086 2390.63 437.853 2402.96 437.853C2457.22 437.853 2465.85 471.148 2465.85 489.645C2465.85 501.977 2460.91 514.308 2451.05 524.173C2433.79 541.437 2423.92 541.437 2361.03 543.904C2335.13 871.922 2384.46 996.47 2296.91 996.47C2293.21 996.47 2289.51 996.47 2285.81 995.237C2277.18 995.237 2252.51 977.973 2247.58 954.543V927.413C2247.58 855.891 2250.05 665.986 2257.44 530.339L2252.51 521.707C2245.11 511.842 2241.41 501.977 2241.41 490.878C2241.41 479.78 2246.35 468.681 2254.98 458.816C2278.41 430.454 2246.35 150.529 2427.62 150.529ZM2815.21 886.719C2800.42 886.719 2790.55 884.253 2790.55 884.253H2791.78C2728.89 864.523 2714.1 797.933 2712.86 797.933C2707.93 797.933 2673.4 841.093 2621.61 841.093C2542.69 841.093 2492.13 758.472 2492.13 649.955C2492.13 583.364 2509.39 535.272 2555.02 535.272C2592.01 535.272 2605.58 566.1 2605.58 583.364C2605.58 601.862 2596.95 614.193 2596.95 653.654C2596.95 706.679 2612.98 735.042 2620.38 735.042C2624.08 735.042 2626.54 732.576 2630.24 728.876C2685.73 675.851 2664.77 556.235 2738.76 556.235C2753.56 556.235 2768.35 562.401 2776.99 573.499C2805.35 605.561 2797.95 779.435 2821.38 779.435C2831.25 779.435 2855.91 747.373 2875.64 706.679C2887.97 683.25 2901.53 659.82 2932.36 659.82C2954.56 659.82 2982.92 675.851 2982.92 709.146C2982.92 742.441 2917.57 886.719 2815.21 886.719ZM3552.91 658.587C3572.64 658.587 3603.47 670.918 3603.47 710.379C3603.47 736.275 3515.91 913.849 3420.96 913.849C3412.33 913.849 3402.46 911.382 3393.83 908.916C3265.58 864.523 3370.4 599.395 3297.65 531.572L3286.55 541.437C3203.93 617.893 3224.89 794.233 3142.27 794.233C3121.31 794.233 3102.81 781.902 3092.94 759.705C3081.84 737.508 3086.78 621.592 3076.91 621.592C3073.21 621.592 3060.88 632.69 3052.25 642.556C2997.99 707.913 3021.42 800.399 2948.66 800.399C2915.37 800.399 2901.8 768.337 2900.57 763.404C2895.64 751.073 2889.47 641.323 2889.47 595.696C2889.47 587.064 2889.47 579.665 2890.71 577.199C2894.41 558.701 2910.44 535.272 2941.27 535.272C2964.7 535.272 2974.56 546.37 2986.89 559.935C3016.49 532.805 3041.15 515.541 3079.38 515.541C3136.1 515.541 3149.67 547.603 3158.3 547.603C3159.53 547.603 3159.53 546.37 3159.53 545.137C3159.53 541.437 3213.79 426.754 3298.88 426.754C3345.74 426.754 3429.59 457.583 3429.59 659.82V736.275C3429.59 796.699 3430.83 795.466 3432.06 795.466C3439.46 795.466 3467.82 757.239 3494.95 706.679C3509.75 682.016 3519.61 658.587 3552.91 658.587Z" fill="#F9E1E1"/>
<path d="M138.064 980.439L102.168 1048.64L102.879 1049.02L103.597 1049.37L138.064 980.439ZM81.3392 520.474L149.403 484.315L147.599 480.92L145.467 477.722L81.3392 520.474ZM99.8365 452.65L159.331 501.646L178.069 478.892L176.842 449.442L99.8365 452.65ZM457.45 86.4049L490.267 16.6688L488.696 15.9294L487.093 15.2616L457.45 86.4049ZM461.15 181.357L495.617 250.293L497.297 249.453L498.935 248.531L461.15 181.357ZM331.669 435.386L297.201 504.322L298.133 504.787L299.076 505.228L331.669 435.386ZM345.233 515.541L398.317 571.418L399.033 570.738L399.731 570.039L345.233 515.541ZM209.587 536.505L201.918 459.815L132.515 466.756V536.505H209.587ZM193.556 973.04L244.76 1030.64L245.301 1030.16L245.832 1029.67L193.556 973.04ZM161.494 908.3C163.86 908.3 165.524 908.694 166.588 909.009C167.217 909.195 167.952 909.45 168.858 909.818C169.32 910.006 169.847 910.232 170.45 910.507C170.752 910.644 171.076 910.795 171.421 910.96C171.594 911.043 171.773 911.13 171.958 911.22C172.051 911.265 172.145 911.311 172.24 911.359C172.288 911.382 172.336 911.406 172.385 911.43C172.409 911.442 172.433 911.455 172.458 911.467C172.47 911.473 172.489 911.482 172.495 911.485C172.513 911.494 172.532 911.504 138.064 980.439C103.597 1049.37 103.615 1049.38 103.634 1049.39C103.64 1049.4 103.659 1049.41 103.671 1049.41C103.696 1049.42 103.722 1049.44 103.747 1049.45C103.798 1049.47 103.85 1049.5 103.902 1049.53C104.008 1049.58 104.116 1049.63 104.227 1049.69C104.451 1049.8 104.686 1049.91 104.935 1050.03C105.432 1050.27 105.981 1050.52 106.579 1050.79C107.774 1051.34 109.179 1051.95 110.777 1052.6C113.956 1053.89 118.006 1055.38 122.797 1056.8C132.185 1059.58 145.563 1062.44 161.494 1062.44V908.3ZM173.96 912.237C173.661 912.079 176.064 913.297 179.198 916.544C182.587 920.054 185.008 924.042 186.43 927.519C187.653 930.507 187.585 931.779 187.322 929.662C187.046 927.443 186.774 923.416 186.774 916.315H32.6298C32.6298 934.884 33.5192 960.842 43.7631 985.883C55.9922 1015.78 77.4912 1035.65 102.168 1048.64L173.96 912.237ZM186.774 916.315C186.774 903.424 187.038 897.43 187.364 884.867C187.692 872.241 188.007 855.228 188.007 822.596H33.8629C33.8629 854.087 33.561 869.753 33.2723 880.865C32.9821 892.04 32.6298 900.843 32.6298 916.315H186.774ZM188.007 822.596C188.007 657.598 186.123 583.83 180.01 547.352C176.145 524.284 168.661 502.427 150.125 483.32C139.119 471.976 147.879 481.448 149.403 484.315L13.2758 556.632C25.2809 579.23 42.9815 594.251 39.4901 590.653C28.4684 579.292 27.0732 567.377 27.9862 572.826C31.4305 593.381 33.8629 650.943 33.8629 822.596H188.007ZM145.467 477.722C150.363 485.067 152.48 491.313 153.215 493.643C154.118 496.502 154.474 498.49 154.588 499.171C154.808 500.492 154.712 500.518 154.712 499.51H0.567879C0.567879 507.135 1.08816 515.793 2.54139 524.512C3.52894 530.438 6.4902 547.144 17.2116 563.226L145.467 477.722ZM154.712 499.51C154.712 498.353 154.748 498.025 154.728 498.275C154.706 498.56 154.614 499.578 154.315 501.107C154.004 502.692 153.521 504.573 152.8 506.617C152.08 508.661 151.279 510.426 150.537 511.842C149.824 513.202 149.276 514.032 149.156 514.209C149.063 514.347 149.276 514.022 150.057 513.012C150.849 511.987 151.93 510.638 153.553 508.656C154.348 507.686 155.207 506.643 156.183 505.46C157.134 504.309 158.216 502.999 159.331 501.646L40.3423 403.655C34.7553 410.44 22.1013 424.836 13.9914 440.318C2.70076 461.873 0.567879 482.123 0.567879 499.51H154.712ZM176.842 449.442C174.407 391.024 173.209 339.104 173.209 296.04H19.0651C19.0651 341.764 20.3329 395.895 22.8314 455.859L176.842 449.442ZM173.209 296.04C173.209 254.633 175.237 225.766 179.464 204.994C183.557 184.883 188.7 177.581 191.344 174.696C196.836 168.702 216.782 154.845 307.006 154.845V0.7009C218.423 0.7009 132.934 10.2738 77.694 70.5612C49.9715 100.817 35.9233 137.369 28.4168 174.253C21.0449 210.476 19.0651 251.744 19.0651 296.04H173.209ZM307.006 154.845C320.57 154.845 353.364 155.432 384.445 156.777C400.008 157.45 414.279 158.278 425.109 159.23C430.592 159.713 434.322 160.153 436.493 160.479C441.092 161.171 435.72 160.845 427.807 157.548L487.093 15.2616C475.481 10.423 463.557 8.67191 459.408 8.04823C452.833 7.05969 445.618 6.29548 438.616 5.6795C424.474 4.43559 407.608 3.49074 391.109 2.77684C358.066 1.3471 323.037 0.7009 307.006 0.7009V154.845ZM424.633 156.141C422.571 155.171 413.673 148.791 413.673 134.498H567.817C567.817 80.7439 534.256 37.3697 490.267 16.6688L424.633 156.141ZM413.673 134.498C413.673 129.716 415.044 124.637 417.707 120.309C420.319 116.065 423.017 114.379 423.364 114.183L498.935 248.531C540.56 225.118 567.817 183.46 567.817 134.498H413.673ZM426.682 112.422C428.799 111.364 430.625 110.625 432.029 110.12C433.436 109.613 434.558 109.29 435.312 109.094C436.742 108.722 437.321 108.686 436.705 108.765C436.136 108.838 434.925 108.962 432.913 109.061C430.924 109.158 428.445 109.218 425.388 109.218V263.362C435.004 263.362 445.723 263.014 456.307 261.657C466.108 260.401 480.791 257.706 495.617 250.293L426.682 112.422ZM425.388 109.218C412.922 109.218 397.025 108.199 375.673 106.895C355.586 105.668 331.842 104.286 308.239 104.286V258.429C326.563 258.429 345.979 259.513 366.277 260.752C385.312 261.915 407.025 263.362 425.388 263.362V109.218ZM308.239 104.286C279.55 104.286 251.726 104.433 229.371 107.693C206.831 110.98 171.579 119.751 147.262 152.707C126.101 181.385 124.333 214.817 123.703 232.138C123.033 250.544 123.883 278.864 123.883 303.439H278.027C278.027 288.195 277.805 274.593 277.674 263.643C277.538 252.181 277.513 244.114 277.744 237.746C277.983 231.195 278.422 229.372 278.288 229.979C278.069 230.969 276.607 237.028 271.295 244.227C258.693 261.307 242.709 261.523 251.615 260.224C255.336 259.681 261.446 259.154 271.435 258.829C281.271 258.51 293.188 258.429 308.239 258.429V104.286ZM123.883 303.439C123.883 368.047 124.144 403.456 125.455 422.372C125.803 427.403 126.351 433.362 127.418 439.373C128.252 444.067 130.525 455.957 137.726 468.523C147.478 485.542 164.409 500.546 187.505 506.342C200.356 509.567 217.345 508.759 208.354 508.759V354.615C207.787 354.615 207.317 354.62 207.023 354.624C206.874 354.626 206.748 354.628 206.671 354.63C206.433 354.634 206.703 354.629 206.539 354.632C206.363 354.635 207.248 354.616 208.389 354.633C210.491 354.664 216.955 354.809 225.026 356.835C233.959 359.076 243.866 363.343 253.151 370.676C262.102 377.746 267.873 385.612 271.467 391.884C277.685 402.734 279.101 411.937 279.188 412.426C279.509 414.231 279.42 414.468 279.23 411.714C278.383 399.493 278.027 370.778 278.027 303.439H123.883ZM208.354 508.759C216.859 508.759 223.759 507.5 223.762 507.499C223.817 507.491 223.753 507.501 223.65 507.515C223.552 507.528 223.516 507.531 223.568 507.526C223.685 507.513 224.331 507.445 225.744 507.349C232.086 506.919 248.091 506.293 287.275 506.293V352.149C247.538 352.149 227.165 352.755 215.318 353.558C208.72 354.006 204.322 354.541 200.614 355.104C197.573 355.566 202.932 354.615 208.354 354.615V508.759ZM287.275 506.293C294.982 506.293 299.952 506.37 303.319 506.503C306.785 506.639 307.059 506.785 305.775 506.583C304.982 506.457 303.716 506.22 302.127 505.802C300.495 505.373 298.955 504.866 297.587 504.344C296.301 503.853 295.476 503.465 295.412 503.434C295.388 503.423 295.491 503.471 295.811 503.629C296.153 503.798 296.545 503.994 297.201 504.322L366.136 366.451C360.107 363.437 348.097 357.212 329.816 354.325C317.002 352.302 302.321 352.149 287.275 352.149V506.293ZM299.076 505.228C288.167 500.137 282.959 489.87 282.959 479.78H437.103C437.103 435.162 412.165 387.9 364.261 365.545L299.076 505.228ZM282.959 479.78C282.959 475.886 283.693 472.66 284.772 469.962C285.884 467.183 287.739 464.039 290.735 461.043L399.731 570.039C424.995 544.775 437.103 511.176 437.103 479.78H282.959ZM292.15 459.664C293.637 458.251 297.094 455.814 301.282 454.41C303.787 453.57 303.686 454.16 295.798 454.646C284.562 455.337 245.344 455.473 201.918 459.815L217.256 613.194C260.151 608.905 276.424 610.273 305.266 608.499C332.744 606.808 366.765 601.392 398.317 571.418L292.15 459.664ZM132.515 536.505C132.515 570.269 134.132 611.254 135.643 655.222C137.179 699.898 138.681 749.371 138.681 802.865H292.824C292.824 746.609 291.244 694.963 289.696 649.928C288.124 604.184 286.659 566.864 286.659 536.505H132.515ZM138.681 802.865C138.681 881.533 136.94 913.653 134.628 927.625C133.687 933.309 133.677 928.761 138.139 921.506C142.149 914.986 148.337 909.893 141.28 916.407L245.832 1029.67C246.79 1028.79 259.761 1017.99 269.436 1002.26C279.562 985.797 284.099 968.532 286.704 952.789C291.482 923.91 292.824 878.341 292.824 802.865H138.681ZM142.352 915.436C148.59 909.891 156.069 908.3 161.494 908.3V1062.44C184.183 1062.44 216.325 1055.92 244.76 1030.64L142.352 915.436ZM670.535 664.752L719.136 724.569L719.799 724.03L720.45 723.476L670.535 664.752ZM607.644 398.392L671.772 355.64L670.585 353.86L669.301 352.149L607.644 398.392ZM718.627 717.161C718.634 717.161 718.594 717.161 718.545 717.161C718.494 717.161 718.435 717.161 718.369 717.161C718.238 717.16 718.102 717.159 717.963 717.157C717.685 717.154 717.425 717.149 717.182 717.142C716.699 717.128 716.302 717.108 715.977 717.086C715.354 717.044 714.901 716.989 714.526 716.927C714.139 716.864 712.331 716.575 709.563 715.174C706.444 713.595 701.188 710.08 696.932 703.564C694.871 700.408 693.566 697.316 692.833 694.689C692.117 692.127 692.115 690.624 692.115 690.649H846.259C846.259 664.912 839.784 640.397 825.989 619.274C812.445 598.538 794.78 585.543 779.176 577.645C750.203 562.979 722.715 563.017 718.627 563.017V717.161ZM692.115 690.649C692.115 678.443 697.563 675.086 692.356 681.458C688.054 686.724 679.831 694.263 667.621 702.216C655.723 709.966 642.37 716.586 629.767 721.104C616.561 725.838 607.658 727.026 603.944 727.026V881.17C655.104 881.17 711.088 857.864 751.753 831.375C773.146 817.44 794.674 799.853 811.72 778.991C827.862 759.237 846.259 728.75 846.259 690.649H692.115ZM603.944 727.026C598.302 727.026 593.508 725.742 590.547 723.235C589.883 722.673 574.965 710.9 574.965 657.353H420.822C420.822 740.686 445.365 802.286 490.944 840.877C534.226 877.522 582.458 881.17 603.944 881.17V727.026ZM574.965 657.353C574.965 636.708 575.498 620.668 576.71 608.103C577.962 595.12 579.651 589.248 580.301 587.53C580.71 586.448 578.504 592.81 570.188 598.735C561.588 604.862 554.324 604.945 554.618 604.945V450.801C530.867 450.801 504.489 456.278 480.744 473.195C457.283 489.911 443.902 512.457 436.142 532.956C422.265 569.612 420.822 615.773 420.822 657.353H574.965ZM554.618 604.945C550.525 604.945 548.769 604.558 548.146 604.415C547.295 604.221 545.113 603.652 542.203 601.847C538.878 599.785 534.848 596.211 531.954 591.047C529.036 585.841 529.339 582.707 529.339 584.598H683.483C683.483 531.059 657.984 492.274 623.451 470.854C594.713 453.03 565.872 450.801 554.618 450.801V604.945ZM529.339 584.598C529.339 590.286 529.033 590.837 527.45 603.699C525.822 616.929 524.406 633.331 524.406 661.053H678.55C678.55 639.449 679.601 629.338 680.439 622.529C681.322 615.353 683.483 602.339 683.483 584.598H529.339ZM524.406 661.053C524.406 672.502 524.742 682.63 525.578 691.463C526.317 699.26 527.833 710.867 532.345 722.761C537.145 735.415 549.421 758.589 577.856 770.297C590.293 775.418 601.132 776.216 606.779 776.356C609.458 776.422 611.644 776.339 612.02 776.326C613.07 776.29 611.551 776.352 610.11 776.352V622.209C608.207 622.209 606.216 622.29 606.788 622.271C606.797 622.271 607.232 622.255 607.821 622.246C608.436 622.236 609.393 622.229 610.575 622.259C615.245 622.374 625.092 623.047 636.546 627.763C663.015 638.662 673.364 659.909 676.469 668.093C679.285 675.517 679.337 680.111 679.035 676.925C678.831 674.775 678.55 669.951 678.55 661.053H524.406ZM610.11 776.352C622.739 776.352 632.903 773.395 637.092 772.103C642.541 770.422 647.457 768.439 651.358 766.729C659.23 763.279 667.238 759.051 674.495 754.89C688.892 746.636 705.421 735.712 719.136 724.569L621.934 604.936C615.918 609.823 606.551 616.164 597.826 621.166C593.522 623.634 590.663 625.032 589.479 625.551C588.853 625.825 589.694 625.413 591.66 624.806C592.687 624.489 594.611 623.936 597.223 623.426C599.625 622.957 604.179 622.209 610.11 622.209V776.352ZM720.45 723.476C723.521 720.867 726.034 718.739 728.236 716.905C730.439 715.071 732.051 713.766 733.285 712.802C734.521 711.837 735.075 711.453 735.143 711.406C735.186 711.377 734.508 711.844 733.244 712.52C731.917 713.23 730.108 714.083 727.891 714.881C725.653 715.687 723.5 716.257 721.568 716.634C719.705 716.999 718.376 717.12 717.854 717.158C717.392 717.192 717.528 717.161 718.627 717.161V563.017C702.837 563.017 682.741 564.725 660.542 576.599C644.951 584.938 630.449 597.673 620.619 606.028L720.45 723.476ZM563.251 403.941C569.922 403.941 578.307 407.224 584.267 413.834C589.324 419.443 590.996 425.518 590.996 430.454H436.853C436.853 491.215 482.543 558.085 563.251 558.085V403.941ZM590.996 430.454C590.996 436.026 588.299 442.29 583.747 446.629C580.202 450.008 574.425 453.267 565.717 453.267V299.123C502.017 299.123 436.853 351.148 436.853 430.454H590.996ZM565.717 453.267C561.595 453.267 557.038 452.245 552.879 450.075C548.805 447.949 546.671 445.547 545.986 444.635L669.301 352.149C644.857 319.556 607.953 299.123 565.717 299.123V453.267ZM543.516 441.144C544.238 442.227 544.29 442.311 544.25 442.248C544.128 442.055 543.579 441.181 542.876 439.863C542.139 438.481 541.323 436.783 540.544 434.826C539.767 432.874 539.17 431.023 538.724 429.349C537.863 426.122 537.746 424.227 537.792 424.766C537.844 425.368 537.971 427.381 537.971 431.687H692.115C692.115 419.276 691.609 404.432 687.663 389.632C682.847 371.572 674.37 359.538 671.772 355.64L543.516 441.144ZM537.971 431.687C537.971 426.579 538.883 423.198 539.588 421.227C540.37 419.043 541.626 416.576 543.737 414.036C545.973 411.344 549.223 408.536 553.46 406.492C557.832 404.382 561.489 403.941 563.251 403.941V558.085C605.866 558.085 640.123 539.234 662.303 512.537C682.325 488.435 692.115 458.605 692.115 431.687H537.971ZM798.06 440.319L721.211 434.458L714.217 526.159L805.728 517.008L798.06 440.319ZM881.914 524.173L936.412 578.671L936.412 578.671L881.914 524.173ZM791.894 543.904L788.874 466.891L720.45 469.574L715.061 537.838L791.894 543.904ZM716.672 995.237L741.044 922.12L729.179 918.165H716.672V995.237ZM678.444 954.543H601.372V962.568L603.025 970.42L678.444 954.543ZM688.309 530.339L765.267 534.537L766.505 511.838L755.226 492.101L688.309 530.339ZM683.377 521.707L750.294 483.469L747.913 479.302L745.034 475.464L683.377 521.707ZM685.843 458.816L743.846 509.568L744.566 508.745L745.262 507.902L685.843 458.816ZM858.484 227.601C859.069 227.601 862.356 227.681 866.608 228.347C871.017 229.038 874.257 230.018 875.999 230.785C877.797 231.576 875.119 230.846 871.782 226.572C870.018 224.313 868.525 221.614 867.556 218.746C866.597 215.907 866.499 213.937 866.499 213.419H1020.64C1020.64 182.359 1010.96 154.35 993.28 131.711C976.493 110.211 955.55 97.3819 938.079 89.6947C904.667 74.9931 871.082 73.4568 858.484 73.4568V227.601ZM866.499 213.419C866.499 205.751 870.233 198.034 875.678 193.108C880.216 189.002 885.725 186.907 891.779 186.907V341.05C952.802 341.05 1020.64 293.89 1020.64 213.419H866.499ZM891.779 186.907C892.523 186.907 894.097 187.005 896.07 187.423C897.802 187.789 898.809 188.21 897.083 187.601C894.101 186.548 876.986 179.508 854.785 179.508V333.651C846.147 333.651 838.282 330.31 845.781 332.957C849.296 334.198 855.852 336.468 864.136 338.222C872.659 340.027 881.787 341.05 891.779 341.05V186.907ZM854.785 179.508C826.182 179.508 800.455 191.291 781.155 211.247C764.35 228.624 754.501 249.917 748.003 268.783C735.018 306.48 726.827 360.828 721.211 434.458L874.908 446.18C880.391 374.299 887.614 336.777 893.743 318.982C896.802 310.101 897.435 312.743 891.959 318.406C883.989 326.647 870.439 333.651 854.785 333.651V179.508ZM805.728 517.008C819.335 515.648 826.164 514.925 833.821 514.925V360.781C816.815 360.781 801.447 362.524 790.391 363.63L805.728 517.008ZM833.821 514.925C839.621 514.925 840.187 515.822 837.661 514.802C834.72 513.613 830.451 510.968 826.616 506.404C823.019 502.125 821.28 497.933 820.484 495.185C819.739 492.612 819.64 490.746 819.64 489.645H973.784C973.784 470.333 969.541 436.878 944.611 407.22C917.456 374.916 877.506 360.781 833.821 360.781V514.925ZM819.64 489.645C819.64 480.893 823.288 473.803 827.416 469.675L936.412 578.671C960.27 554.814 973.784 523.06 973.784 489.645H819.64ZM827.416 469.675C825.56 471.531 827.254 469.503 831.299 467.202C835.771 464.658 839.206 463.952 839.078 463.977C838.018 464.186 834.491 464.719 825.339 465.281C816.381 465.831 805.081 466.255 788.874 466.891L794.914 620.916C822.57 619.832 848.912 619.157 868.949 615.199C881.308 612.757 894.376 608.66 907.519 601.183C920.234 593.949 929.635 585.448 936.412 578.671L827.416 469.675ZM715.061 537.838C701.953 703.876 707.569 826.401 705.907 891.218C704.941 928.9 701.577 938.585 701.647 938.439C703.055 935.516 707.479 928.636 716.362 923.56C724.371 918.984 729.921 919.398 727.77 919.398V1073.54C747.507 1073.54 770.669 1070.06 792.839 1057.39C815.884 1044.23 831.021 1025.05 840.522 1005.33C856.777 971.579 859.117 929.626 860 895.169C862.038 815.707 855.939 711.949 868.727 549.969L715.061 537.838ZM727.77 919.398C725.392 919.398 726.747 919.354 728.621 919.51C730.999 919.708 735.512 920.276 741.044 922.12L692.299 1068.35C709.689 1074.15 725.809 1073.54 727.77 1073.54V919.398ZM716.672 918.165C727.249 918.165 734.865 920.554 737.752 921.544C741.343 922.776 743.761 924.018 744.935 924.664C747.271 925.951 748.216 926.83 748.401 927.001C748.673 927.252 749.339 927.893 750.223 929.276C751.108 930.66 752.834 933.781 753.863 938.665L603.025 970.42C609.852 1002.85 628.748 1026.35 643.94 1040.35C651.987 1047.77 661.024 1054.43 670.567 1059.68C677.145 1063.31 694.453 1072.31 716.672 1072.31V918.165ZM755.516 954.543V927.413H601.372V954.543H755.516ZM755.516 927.413C755.516 856.576 757.975 668.218 765.267 534.537L611.352 526.141C603.846 663.753 601.372 855.206 601.372 927.413H755.516ZM755.226 492.101L750.294 483.469L616.46 559.945L621.392 568.577L755.226 492.101ZM745.034 475.464C745.031 475.459 745.349 475.882 745.82 476.727C746.3 477.587 746.906 478.825 747.485 480.416C748.739 483.866 749.35 487.545 749.35 490.878H595.206C595.206 521.461 606.142 547.18 621.719 567.95L745.034 475.464ZM749.35 490.878C749.35 503.137 744.022 509.367 743.846 509.568L627.84 408.064C610.4 427.996 595.206 456.423 595.206 490.878H749.35ZM745.262 507.902C756.532 494.259 761.36 479.78 763.394 473.089C765.883 464.896 767.476 456.729 768.586 450.037C770.779 436.816 772.4 420.89 773.875 406.597C777.066 375.696 780.511 343.008 787.933 311.952C795.517 280.217 805.55 258.06 816.87 244.84C825.477 234.789 836.282 227.601 858.484 227.601V73.4568C790.049 73.4568 736.884 101.259 699.788 144.58C665.405 184.733 648 234.329 638.011 276.121C627.861 318.591 623.599 361.203 620.547 390.765C618.901 406.703 617.766 417.3 616.52 424.816C615.91 428.492 615.612 429.248 615.909 428.271C616.086 427.689 616.7 425.738 617.978 422.985C619.179 420.399 621.748 415.39 626.423 409.731L745.262 507.902ZM1126.46 833.694L1112.96 909.574L1119.66 910.766H1126.46V833.694ZM1027.81 596.929L958.876 562.461L898.385 683.442L1033.3 673.805L1027.81 596.929ZM1072.2 588.297L1106.67 657.232L1107.9 656.617L1109.11 655.958L1072.2 588.297ZM1315.13 731.959C1308.22 731.959 1300.1 729.011 1293.91 722.602C1287.75 716.222 1286.16 709.257 1286.16 705.446H1440.3C1440.3 635.857 1387.36 577.815 1315.13 577.815V731.959ZM1286.16 705.446C1286.16 692.305 1291.28 689.477 1285.4 697.651C1281.03 703.726 1272.68 712.629 1259.6 721.858C1233.82 740.049 1193.74 756.622 1141.26 756.622V910.766C1226.89 910.766 1297.8 883.562 1348.47 847.803C1373.62 830.056 1394.87 809.441 1410.54 787.654C1424.7 767.967 1440.3 738.934 1440.3 705.446H1286.16ZM1141.26 756.622H1126.46V910.766H1141.26V756.622ZM1139.97 757.814C1025.76 737.49 995.132 672.661 995.132 627.758H840.989C840.989 757.962 936.139 878.106 1112.96 909.574L1139.97 757.814ZM995.132 627.758C995.132 564.994 1044.99 528.489 1082.07 528.489V374.345C961.307 374.345 840.989 478.42 840.989 627.758H995.132ZM1082.07 528.489C1095.89 528.489 1104.88 532.962 1109.55 537.214C1113.15 540.498 1118.45 547.298 1118.45 563.634H1272.59C1272.59 507.214 1251.38 457.906 1213.36 423.271C1176.41 389.603 1128.67 374.345 1082.07 374.345V528.489ZM1118.45 563.634C1118.45 586.609 1108.68 597.78 1091.83 607.651C1082.48 613.126 1072.21 617.075 1062.63 620.162C1055.91 622.328 1055.69 622.247 1048.63 624.452C1046.94 624.978 1042.07 626.486 1037.04 628.651C1034.96 629.545 1028.5 632.349 1021.4 637.454C1017.83 640.026 1011.09 645.288 1004.67 653.767C998.112 662.438 988.967 678.488 988.967 700.514H1143.11C1143.11 722.386 1134.03 738.276 1127.59 746.783C1121.3 755.097 1114.75 760.189 1111.42 762.585C1104.81 767.338 1099.08 769.764 1097.95 770.25C1094.81 771.6 1092.72 772.169 1094.57 771.59C1094.59 771.583 1104.49 768.623 1109.91 766.877C1124.61 762.141 1146.71 754.144 1169.73 740.659C1217.62 712.611 1272.59 657.808 1272.59 563.634H1118.45ZM988.967 700.514C988.967 720.949 997.198 735.336 998.73 738.088C1001.6 743.25 1004.47 746.976 1005.89 748.767C1008.9 752.538 1011.64 755.242 1012.83 756.391C1015.56 759.041 1018.07 761.109 1019.6 762.335C1023 765.052 1026.69 767.67 1030.38 770.094C1037.92 775.043 1047.76 780.665 1059.58 786.007C1083.1 796.635 1116.78 807.181 1157.29 807.181V653.037C1143.54 653.037 1131.6 649.402 1123.06 645.541C1118.85 643.638 1116.04 641.939 1114.95 641.222C1114.33 640.814 1114.7 641.014 1115.86 641.944C1116.28 642.277 1117.94 643.609 1120.11 645.708C1121.01 646.581 1123.53 649.056 1126.4 652.647C1127.76 654.349 1130.56 657.997 1133.4 663.094C1134.86 665.706 1136.96 669.83 1138.82 675.163C1140.56 680.156 1143.11 689.075 1143.11 700.514H988.967ZM1157.29 807.181C1228.62 807.181 1273.1 775.355 1301.5 751.131C1317.71 737.301 1320.4 734.064 1326.51 729.786C1329.28 727.852 1324.33 731.959 1315.13 731.959V577.815C1281.28 577.815 1255.52 591.325 1238.13 603.495C1224.09 613.321 1207.28 628.89 1201.45 633.865C1185.76 647.253 1175.98 653.037 1157.29 653.037V807.181ZM962.575 555.063L958.876 562.461L1096.75 631.397L1100.45 623.998L962.575 555.063ZM1033.3 673.805C1044.95 672.973 1075.14 673.001 1106.67 657.232L1037.74 519.362C1037.96 519.248 1038.49 519.018 1039.16 518.817C1039.78 518.629 1039.97 518.634 1039.34 518.731C1038.55 518.85 1037.1 519.023 1034.13 519.249C1032.65 519.361 1031.05 519.468 1029.02 519.601C1027.1 519.727 1024.75 519.879 1022.32 520.053L1033.3 673.805ZM1109.11 655.958C1135.12 641.769 1169.01 610.924 1169.01 563.634H1014.86C1014.86 546.484 1021.56 534.97 1025.5 529.722C1029.87 523.89 1033.95 521.37 1035.3 520.636L1109.11 655.958ZM1169.01 563.634C1169.01 542.103 1160.91 519.602 1143.66 502.354C1125.68 484.38 1102.49 476.697 1080.84 476.697V630.841C1066.58 630.841 1048.94 625.624 1034.66 611.35C1021.11 597.801 1014.86 580.232 1014.86 563.634H1169.01ZM1080.84 476.697C1041.86 476.697 1012.99 497.835 999.376 509.575C984.751 522.183 970.67 538.873 962.575 555.063L1100.45 623.998C1099.1 626.694 1098.05 628.233 1097.89 628.469C1097.6 628.89 1097.57 628.9 1097.83 628.585C1098.41 627.874 1099.26 626.983 1100.02 626.325C1100.91 625.564 1100.44 626.168 1098.32 627.205C1096.29 628.195 1090.16 630.841 1080.84 630.841V476.697ZM1479.31 833.694L1465.8 909.574L1472.5 910.766H1479.31V833.694ZM1380.66 596.929L1311.72 562.461L1251.23 683.442L1386.15 673.805L1380.66 596.929ZM1425.05 588.297L1459.52 657.232L1460.75 656.617L1461.96 655.958L1425.05 588.297ZM1667.98 731.959C1661.07 731.959 1652.94 729.011 1646.75 722.602C1640.59 716.222 1639 709.257 1639 705.446H1793.14C1793.14 635.857 1740.2 577.815 1667.98 577.815V731.959ZM1639 705.446C1639 692.305 1644.12 689.477 1638.24 697.651C1633.87 703.726 1625.52 712.629 1612.45 721.858C1586.67 740.049 1546.59 756.622 1494.11 756.622V910.766C1579.74 910.766 1650.64 883.562 1701.32 847.803C1726.47 830.056 1747.71 809.441 1763.38 787.654C1777.54 767.967 1793.14 738.934 1793.14 705.446H1639ZM1494.11 756.622H1479.31V910.766H1494.11V756.622ZM1492.81 757.814C1378.61 737.49 1347.98 672.661 1347.98 627.758H1193.83C1193.83 757.962 1288.98 878.106 1465.8 909.574L1492.81 757.814ZM1347.98 627.758C1347.98 564.994 1397.83 528.489 1434.91 528.489V374.345C1314.15 374.345 1193.83 478.42 1193.83 627.758H1347.98ZM1434.91 528.489C1448.73 528.489 1457.72 532.962 1462.39 537.214C1466 540.498 1471.29 547.298 1471.29 563.634H1625.44C1625.44 507.214 1604.22 457.906 1566.21 423.271C1529.25 389.603 1481.52 374.345 1434.91 374.345V528.489ZM1471.29 563.634C1471.29 586.609 1461.53 597.78 1444.67 607.651C1435.32 613.126 1425.06 617.075 1415.48 620.162C1408.76 622.328 1408.54 622.247 1401.48 624.452C1399.79 624.978 1394.92 626.486 1389.88 628.651C1387.8 629.545 1381.34 632.349 1374.25 637.454C1370.67 640.026 1363.94 645.288 1357.52 653.767C1350.96 662.438 1341.81 678.488 1341.81 700.514H1495.96C1495.96 722.386 1486.87 738.276 1480.44 746.783C1474.14 755.097 1467.59 760.189 1464.26 762.585C1457.66 767.338 1451.92 769.764 1450.79 770.25C1447.66 771.6 1445.56 772.169 1447.42 771.59C1447.44 771.583 1457.33 768.623 1462.75 766.877C1477.45 762.141 1499.55 754.144 1522.58 740.659C1570.46 712.611 1625.44 657.808 1625.44 563.634H1471.29ZM1341.81 700.514C1341.81 720.949 1350.04 735.336 1351.57 738.088C1354.45 743.25 1357.31 746.976 1358.74 748.767C1361.75 752.538 1364.49 755.242 1365.67 756.391C1368.4 759.041 1370.91 761.109 1372.45 762.335C1375.85 765.052 1379.53 767.67 1383.23 770.094C1390.77 775.043 1400.6 780.665 1412.42 786.007C1435.94 796.635 1469.63 807.181 1510.14 807.181V653.037C1496.39 653.037 1484.45 649.402 1475.9 645.541C1471.69 643.638 1468.89 641.939 1467.8 641.222C1467.17 640.814 1467.55 641.014 1468.71 641.944C1469.13 642.277 1470.79 643.609 1472.95 645.708C1473.85 646.581 1476.38 649.056 1479.24 652.647C1480.6 654.349 1483.41 657.997 1486.25 663.094C1487.7 665.706 1489.8 669.83 1491.66 675.163C1493.4 680.156 1495.96 689.075 1495.96 700.514H1341.81ZM1510.14 807.181C1581.47 807.181 1625.95 775.355 1654.34 751.131C1670.55 737.301 1673.24 734.064 1679.36 729.786C1682.12 727.852 1677.17 731.959 1667.98 731.959V577.815C1634.12 577.815 1608.37 591.325 1590.98 603.495C1576.94 613.321 1560.13 628.89 1554.3 633.865C1538.6 647.253 1528.83 653.037 1510.14 653.037V807.181ZM1315.42 555.063L1311.72 562.461L1449.59 631.397L1453.29 623.998L1315.42 555.063ZM1386.15 673.805C1397.79 672.973 1427.98 673.001 1459.52 657.232L1390.58 519.362C1390.81 519.248 1391.34 519.018 1392 518.817C1392.62 518.629 1392.82 518.634 1392.18 518.731C1391.39 518.85 1389.95 519.023 1386.97 519.249C1385.5 519.361 1383.89 519.468 1381.87 519.601C1379.94 519.727 1377.6 519.879 1375.16 520.053L1386.15 673.805ZM1461.96 655.958C1487.97 641.769 1521.85 610.924 1521.85 563.634H1367.71C1367.71 546.484 1374.41 534.97 1378.34 529.722C1382.72 523.89 1386.8 521.37 1388.14 520.636L1461.96 655.958ZM1521.85 563.634C1521.85 542.103 1513.75 519.602 1496.5 502.354C1478.53 484.38 1455.33 476.697 1433.68 476.697V630.841C1419.43 630.841 1401.78 625.624 1387.51 611.35C1373.96 597.801 1367.71 580.232 1367.71 563.634H1521.85ZM1433.68 476.697C1394.71 476.697 1365.84 497.835 1352.22 509.575C1337.6 522.183 1323.51 538.873 1315.42 555.063L1453.29 623.998C1451.94 626.694 1450.89 628.233 1450.73 628.469C1450.45 628.89 1450.41 628.9 1450.67 628.585C1451.25 627.874 1452.1 626.983 1452.87 626.325C1453.75 625.564 1453.28 626.168 1451.16 627.205C1449.14 628.195 1443.01 630.841 1433.68 630.841V476.697ZM1744.6 440.319L1667.75 434.458L1660.76 526.159L1752.27 517.008L1744.6 440.319ZM1828.45 524.173L1882.95 578.671L1882.95 578.671L1828.45 524.173ZM1738.43 543.904L1735.41 466.891L1666.99 469.574L1661.6 537.838L1738.43 543.904ZM1663.21 995.237L1687.58 922.12L1675.72 918.165H1663.21V995.237ZM1624.98 954.543H1547.91V962.568L1549.56 970.42L1624.98 954.543ZM1634.85 530.339L1711.81 534.537L1713.04 511.838L1701.77 492.101L1634.85 530.339ZM1629.92 521.707L1696.83 483.469L1694.45 479.302L1691.57 475.464L1629.92 521.707ZM1632.38 458.816L1690.38 509.568L1691.11 508.745L1691.8 507.902L1632.38 458.816ZM1805.02 227.601C1805.61 227.601 1808.9 227.681 1813.15 228.347C1817.56 229.038 1820.8 230.018 1822.54 230.785C1824.34 231.576 1821.66 230.846 1818.32 226.572C1816.56 224.313 1815.06 221.614 1814.09 218.746C1813.14 215.907 1813.04 213.937 1813.04 213.419H1967.18C1967.18 182.359 1957.49 154.35 1939.82 131.711C1923.03 110.211 1902.09 97.3819 1884.62 89.6947C1851.21 74.9931 1817.62 73.4568 1805.02 73.4568V227.601ZM1813.04 213.419C1813.04 205.751 1816.77 198.034 1822.22 193.108C1826.76 189.002 1832.26 186.907 1838.32 186.907V341.05C1899.34 341.05 1967.18 293.89 1967.18 213.419H1813.04ZM1838.32 186.907C1839.06 186.907 1840.64 187.005 1842.61 187.423C1844.34 187.789 1845.35 188.21 1843.62 187.601C1840.64 186.548 1823.53 179.508 1801.32 179.508V333.651C1792.69 333.651 1784.82 330.31 1792.32 332.957C1795.84 334.198 1802.39 336.468 1810.67 338.222C1819.2 340.027 1828.33 341.05 1838.32 341.05V186.907ZM1801.32 179.508C1772.72 179.508 1746.99 191.291 1727.69 211.247C1710.89 228.624 1701.04 249.917 1694.54 268.783C1681.56 306.48 1673.37 360.828 1667.75 434.458L1821.45 446.18C1826.93 374.299 1834.15 336.777 1840.28 318.982C1843.34 310.101 1843.97 312.743 1838.5 318.406C1830.53 326.647 1816.98 333.651 1801.32 333.651V179.508ZM1752.27 517.008C1765.87 515.648 1772.7 514.925 1780.36 514.925V360.781C1763.35 360.781 1747.99 362.524 1736.93 363.63L1752.27 517.008ZM1780.36 514.925C1786.16 514.925 1786.73 515.822 1784.2 514.802C1781.26 513.613 1776.99 510.968 1773.16 506.404C1769.56 502.125 1767.82 497.933 1767.02 495.185C1766.28 492.612 1766.18 490.746 1766.18 489.645H1920.32C1920.32 470.333 1916.08 436.878 1891.15 407.22C1864 374.916 1824.05 360.781 1780.36 360.781V514.925ZM1766.18 489.645C1766.18 480.893 1769.83 473.803 1773.96 469.675L1882.95 578.671C1906.81 554.814 1920.32 523.06 1920.32 489.645H1766.18ZM1773.96 469.675C1772.1 471.531 1773.79 469.503 1777.84 467.202C1782.31 464.658 1785.74 463.952 1785.62 463.977C1784.56 464.186 1781.03 464.719 1771.88 465.281C1762.92 465.831 1751.62 466.255 1735.41 466.891L1741.45 620.916C1769.11 619.832 1795.45 619.157 1815.49 615.199C1827.85 612.757 1840.92 608.66 1854.06 601.183C1866.77 593.949 1876.17 585.448 1882.95 578.671L1773.96 469.675ZM1661.6 537.838C1648.49 703.876 1654.11 826.401 1652.45 891.218C1651.48 928.9 1648.12 938.585 1648.19 938.439C1649.59 935.516 1654.02 928.636 1662.9 923.56C1670.91 918.984 1676.46 919.398 1674.31 919.398V1073.54C1694.05 1073.54 1717.21 1070.06 1739.38 1057.39C1762.42 1044.23 1777.56 1025.05 1787.06 1005.33C1803.32 971.579 1805.66 929.626 1806.54 895.169C1808.58 815.707 1802.48 711.949 1815.27 549.969L1661.6 537.838ZM1674.31 919.398C1671.93 919.398 1673.29 919.354 1675.16 919.51C1677.54 919.708 1682.05 920.276 1687.58 922.12L1638.84 1068.35C1656.23 1074.15 1672.35 1073.54 1674.31 1073.54V919.398ZM1663.21 918.165C1673.79 918.165 1681.4 920.554 1684.29 921.544C1687.88 922.776 1690.3 924.018 1691.47 924.664C1693.81 925.951 1694.75 926.83 1694.94 927.001C1695.21 927.252 1695.88 927.893 1696.76 929.276C1697.65 930.66 1699.37 933.781 1700.4 938.665L1549.56 970.42C1556.39 1002.85 1575.29 1026.35 1590.48 1040.35C1598.53 1047.77 1607.56 1054.43 1617.11 1059.68C1623.68 1063.31 1640.99 1072.31 1663.21 1072.31V918.165ZM1702.06 954.543V927.413H1547.91V954.543H1702.06ZM1702.06 927.413C1702.06 856.576 1704.51 668.218 1711.81 534.537L1557.89 526.141C1550.38 663.753 1547.91 855.206 1547.91 927.413H1702.06ZM1701.77 492.101L1696.83 483.469L1563 559.945L1567.93 568.577L1701.77 492.101ZM1691.57 475.464C1691.57 475.459 1691.89 475.882 1692.36 476.727C1692.84 477.587 1693.45 478.825 1694.02 480.416C1695.28 483.866 1695.89 487.545 1695.89 490.878H1541.75C1541.75 521.461 1552.68 547.18 1568.26 567.95L1691.57 475.464ZM1695.89 490.878C1695.89 503.137 1690.56 509.367 1690.38 509.568L1574.38 408.064C1556.94 427.996 1541.75 456.423 1541.75 490.878H1695.89ZM1691.8 507.902C1703.07 494.259 1707.9 479.78 1709.93 473.089C1712.42 464.896 1714.02 456.729 1715.13 450.037C1717.32 436.816 1718.94 420.89 1720.41 406.597C1723.61 375.696 1727.05 343.008 1734.47 311.952C1742.06 280.217 1752.09 258.06 1763.41 244.84C1772.02 234.789 1782.82 227.601 1805.02 227.601V73.4568C1736.59 73.4568 1683.42 101.259 1646.33 144.58C1611.94 184.733 1594.54 234.329 1584.55 276.121C1574.4 318.591 1570.14 361.203 1567.09 390.765C1565.44 406.703 1564.31 417.3 1563.06 424.816C1562.45 428.492 1562.15 429.248 1562.45 428.271C1562.63 427.689 1563.24 425.738 1564.52 422.985C1565.72 420.399 1568.29 415.39 1572.96 409.731L1691.8 507.902ZM1928.72 547.603L1995.48 586.118L1995.94 585.319L1996.38 584.509L1928.72 547.603ZM2011.34 615.426L2086.12 634.119L2087.08 630.262L2087.64 626.326L2011.34 615.426ZM1987.91 767.72C1991.23 767.72 1993.67 767.953 1994.53 768.039C1995.68 768.155 1996.49 768.273 1996.91 768.336C1997.73 768.463 1997.97 768.532 1997.62 768.452C1996.95 768.299 1995.13 767.828 1992.53 766.875C1987.24 764.93 1980.44 761.614 1973.97 756.484C1967.75 751.561 1961.71 744.897 1957.03 735.374C1952.39 725.922 1947.84 711.115 1947.84 688.182H1793.69C1793.69 779.64 1832.15 840.778 1878.24 877.3C1899.97 894.521 1921.92 905.155 1939.4 911.573C1948.2 914.801 1956.27 917.114 1963.18 918.7C1967.87 919.773 1977.63 921.864 1987.91 921.864V767.72ZM1947.84 688.182C1947.84 657.597 1954.29 644.369 1958.81 636.884C1961.92 631.729 1965.56 627.001 1971.95 619.055C1977.3 612.396 1987.32 600.266 1995.48 586.118L1861.97 509.089C1860.88 510.971 1859.03 513.485 1851.78 522.51C1845.56 530.248 1835.88 542.244 1826.81 557.282C1806.97 590.183 1793.69 631.214 1793.69 688.182H1947.84ZM1996.38 584.509C1994.45 588.064 1993 588.896 1994.25 587.852C1995.38 586.911 1997.88 585.15 2002.01 583.224C2010.56 579.236 2021.65 576.582 2032.31 576.582V422.438C1998.57 422.438 1965.27 430.266 1936.82 443.542C1909.76 456.174 1879.13 477.574 1861.06 510.697L1996.38 584.509ZM2032.31 576.582C2054.37 576.582 2066.9 584.517 2075.41 594.95C2085.36 607.137 2093.35 627.707 2093.35 654.887H2247.49C2247.49 599.446 2231.43 542.328 2194.83 497.481C2156.79 450.881 2100.27 422.438 2032.31 422.438V576.582ZM2093.35 654.887C2093.35 731.271 2041.27 768.954 2003.95 768.954V923.097C2139.27 923.097 2247.49 802.937 2247.49 654.887H2093.35ZM2003.95 768.954C2005.8 768.954 2006.98 769.16 2004.47 768.865C2003.63 768.765 2001.17 768.466 1998.72 768.239C1996.05 767.993 1992.3 767.72 1987.91 767.72V921.864C1986 921.864 1984.71 921.746 1984.55 921.731C1984.45 921.722 1984.51 921.726 1984.86 921.765C1985.27 921.812 1985.63 921.855 1986.46 921.953C1989.19 922.274 1995.92 923.097 2003.95 923.097V768.954ZM2142.68 657.353C2142.68 642.714 2141.53 615.752 2129.89 589.853C2123.62 575.89 2112.96 559.228 2094.98 546.075C2076.18 532.316 2054.28 526.023 2032.31 526.023V680.167C2024.52 680.167 2013.87 677.727 2003.97 670.48C1994.89 663.841 1990.78 656.35 1989.29 653.023C1987.86 649.849 1987.88 648.47 1988.13 650.157C1988.34 651.599 1988.53 654.002 1988.53 657.353H2142.68ZM2032.31 526.023C2020.33 526.023 1999.97 527.492 1979.74 538.928C1955.12 552.844 1939 576.838 1935.05 604.527L2087.64 626.326C2086.5 634.322 2083.48 643.861 2077.17 653.153C2070.84 662.471 2062.97 668.949 2055.59 673.119C2048.56 677.091 2042.47 678.724 2038.89 679.428C2035.28 680.139 2032.89 680.167 2032.31 680.167V526.023ZM1936.57 596.734C1938.44 589.273 1941.47 583.502 1944.04 579.614C1945.28 577.757 1946.36 576.39 1947.07 575.546C1947.78 574.713 1948.24 574.246 1948.25 574.231C1948.25 574.229 1948.03 574.459 1947.34 575.108C1946.52 575.88 1945.9 576.455 1944.47 577.788C1942.09 580.014 1938.21 583.653 1934.1 588.054C1925.36 597.39 1915.06 610.593 1907.37 628.855C1899.7 647.07 1896.05 666.9 1896.05 688.182H2050.19C2050.19 684.801 2050.7 685.672 2049.42 688.704C2048.12 691.782 2046.46 693.579 2046.66 693.358C2047.02 692.98 2047.69 692.304 2049.69 690.435C2051.08 689.136 2054.9 685.634 2058.33 682.132C2065.37 674.95 2079.89 659.032 2086.12 634.119L1936.57 596.734ZM1896.05 688.182C1896.05 724.953 1906.28 759.136 1930.55 784.489C1953.37 808.328 1981.88 817.046 2003.95 817.046V662.903C2013.18 662.903 2020.31 664.77 2025.52 666.889C2031.54 669.334 2037.22 673.011 2041.89 677.888C2052.29 688.751 2050.19 697.038 2050.19 688.182H1896.05ZM2003.95 817.046C2066.21 817.046 2103.68 777.623 2121.47 743.809C2137.9 712.605 2142.68 678.934 2142.68 657.353H1988.53C1988.53 657.349 1988.52 658.129 1988.37 659.566C1988.21 660.955 1987.96 662.607 1987.58 664.363C1986.75 668.172 1985.71 670.8 1985.07 672.017C1984.41 673.27 1985.34 670.874 1989.39 667.958C1991.52 666.428 1994.14 665.041 1997.08 664.092C2000.02 663.142 2002.45 662.903 2003.95 662.903V817.046ZM2367.2 440.319L2290.35 434.458L2283.35 526.159L2374.86 517.008L2367.2 440.319ZM2451.05 524.173L2505.55 578.671L2505.55 578.671L2451.05 524.173ZM2361.03 543.904L2358.01 466.891L2289.59 469.574L2284.2 537.838L2361.03 543.904ZM2285.81 995.237L2310.18 922.12L2298.31 918.165H2285.81V995.237ZM2247.58 954.543H2170.51V962.568L2172.16 970.42L2247.58 954.543ZM2257.44 530.339L2334.4 534.537L2335.64 511.838L2324.36 492.101L2257.44 530.339ZM2252.51 521.707L2319.43 483.469L2317.05 479.302L2314.17 475.464L2252.51 521.707ZM2254.98 458.816L2312.98 509.568L2313.7 508.745L2314.4 507.902L2254.98 458.816ZM2427.62 227.601C2428.2 227.601 2431.49 227.681 2435.74 228.347C2440.15 229.038 2443.39 230.018 2445.14 230.785C2446.93 231.576 2444.25 230.846 2440.92 226.572C2439.15 224.313 2437.66 221.614 2436.69 218.746C2435.73 215.907 2435.64 213.937 2435.64 213.419H2589.78C2589.78 182.359 2580.09 154.35 2562.42 131.711C2545.63 110.211 2524.69 97.3819 2507.21 89.6947C2473.8 74.9931 2440.22 73.4568 2427.62 73.4568V227.601ZM2435.64 213.419C2435.64 205.751 2439.37 198.034 2444.81 193.108C2449.35 189.002 2454.86 186.907 2460.91 186.907V341.05C2521.94 341.05 2589.78 293.89 2589.78 213.419H2435.64ZM2460.91 186.907C2461.66 186.907 2463.23 187.005 2465.21 187.423C2466.94 187.789 2467.94 188.21 2466.22 187.601C2463.24 186.548 2446.12 179.508 2423.92 179.508V333.651C2415.28 333.651 2407.42 330.31 2414.92 332.957C2418.43 334.198 2424.99 336.468 2433.27 338.222C2441.79 340.027 2450.92 341.05 2460.91 341.05V186.907ZM2423.92 179.508C2395.32 179.508 2369.59 191.291 2350.29 211.247C2333.49 228.624 2323.64 249.917 2317.14 268.783C2304.15 306.48 2295.96 360.828 2290.35 434.458L2444.04 446.18C2449.53 374.299 2456.75 336.777 2462.88 318.982C2465.94 310.101 2466.57 312.743 2461.09 318.406C2453.12 326.647 2439.57 333.651 2423.92 333.651V179.508ZM2374.86 517.008C2388.47 515.648 2395.3 514.925 2402.96 514.925V360.781C2385.95 360.781 2370.58 362.524 2359.53 363.63L2374.86 517.008ZM2402.96 514.925C2408.76 514.925 2409.32 515.822 2406.8 514.802C2403.86 513.613 2399.59 510.968 2395.75 506.404C2392.15 502.125 2390.42 497.933 2389.62 495.185C2388.87 492.612 2388.78 490.746 2388.78 489.645H2542.92C2542.92 470.333 2538.68 436.878 2513.75 407.22C2486.59 374.916 2446.64 360.781 2402.96 360.781V514.925ZM2388.78 489.645C2388.78 480.893 2392.42 473.803 2396.55 469.675L2505.55 578.671C2529.41 554.814 2542.92 523.06 2542.92 489.645H2388.78ZM2396.55 469.675C2394.7 471.531 2396.39 469.503 2400.43 467.202C2404.91 464.658 2408.34 463.952 2408.21 463.977C2407.15 464.186 2403.63 464.719 2394.47 465.281C2385.52 465.831 2374.22 466.255 2358.01 466.891L2364.05 620.916C2391.71 619.832 2418.05 619.157 2438.08 615.199C2450.44 612.757 2463.51 608.66 2476.65 601.183C2489.37 593.949 2498.77 585.448 2505.55 578.671L2396.55 469.675ZM2284.2 537.838C2271.09 703.876 2276.7 826.401 2275.04 891.218C2274.08 928.9 2270.71 938.585 2270.78 938.439C2272.19 935.516 2276.61 928.636 2285.5 923.56C2293.51 918.984 2299.06 919.398 2296.91 919.398V1073.54C2316.64 1073.54 2339.8 1070.06 2361.97 1057.39C2385.02 1044.23 2400.16 1025.05 2409.66 1005.33C2425.91 971.579 2428.25 929.626 2429.14 895.169C2431.17 815.707 2425.07 711.949 2437.86 549.969L2284.2 537.838ZM2296.91 919.398C2294.53 919.398 2295.88 919.354 2297.76 919.51C2300.13 919.708 2304.65 920.276 2310.18 922.12L2261.43 1068.35C2278.82 1074.15 2294.94 1073.54 2296.91 1073.54V919.398ZM2285.81 918.165C2296.38 918.165 2304 920.554 2306.89 921.544C2310.48 922.776 2312.9 924.018 2314.07 924.664C2316.41 925.951 2317.35 926.83 2317.54 927.001C2317.81 927.252 2318.47 927.893 2319.36 929.276C2320.24 930.66 2321.97 933.781 2323 938.665L2172.16 970.42C2178.99 1002.85 2197.88 1026.35 2213.08 1040.35C2221.12 1047.77 2230.16 1054.43 2239.7 1059.68C2246.28 1063.31 2263.59 1072.31 2285.81 1072.31V918.165ZM2324.65 954.543V927.413H2170.51V954.543H2324.65ZM2324.65 927.413C2324.65 856.576 2327.11 668.218 2334.4 534.537L2180.49 526.141C2172.98 663.753 2170.51 855.206 2170.51 927.413H2324.65ZM2324.36 492.101L2319.43 483.469L2185.6 559.945L2190.53 568.577L2324.36 492.101ZM2314.17 475.464C2314.17 475.459 2314.48 475.882 2314.96 476.727C2315.44 477.587 2316.04 478.825 2316.62 480.416C2317.87 483.866 2318.49 487.545 2318.49 490.878H2164.34C2164.34 521.461 2175.28 547.18 2190.85 567.95L2314.17 475.464ZM2318.49 490.878C2318.49 503.137 2313.16 509.367 2312.98 509.568L2196.98 408.064C2179.54 427.996 2164.34 456.423 2164.34 490.878H2318.49ZM2314.4 507.902C2325.67 494.259 2330.5 479.78 2332.53 473.089C2335.02 464.896 2336.61 456.729 2337.72 450.037C2339.91 436.816 2341.54 420.89 2343.01 406.597C2346.2 375.696 2349.65 343.008 2357.07 311.952C2364.65 280.217 2374.69 258.06 2386.01 244.84C2394.61 234.789 2405.42 227.601 2427.62 227.601V73.4568C2359.18 73.4568 2306.02 101.259 2268.92 144.58C2234.54 184.733 2217.14 234.329 2207.15 276.121C2197 318.591 2192.73 361.203 2189.68 390.765C2188.04 406.703 2186.9 417.3 2185.66 424.816C2185.05 428.492 2184.75 429.248 2185.04 428.271C2185.22 427.689 2185.84 425.738 2187.11 422.985C2188.31 420.399 2190.88 415.39 2195.56 409.731L2314.4 507.902ZM2790.55 884.253V807.181L2771.86 959.024L2790.55 884.253ZM2791.78 884.253V961.325L2814.85 810.715L2791.78 884.253ZM2630.24 728.876L2577 673.154L2576.36 673.759L2575.74 674.378L2630.24 728.876ZM2776.99 573.499L2716.15 620.817L2717.65 622.74L2719.26 624.565L2776.99 573.499ZM2875.64 706.679L2807.44 670.783L2806.84 671.91L2806.29 673.055L2875.64 706.679ZM2815.21 809.648C2812.04 809.648 2809.56 809.378 2808.23 809.189C2807.6 809.098 2807.31 809.037 2807.44 809.063C2807.51 809.077 2807.68 809.113 2807.98 809.18C2808.13 809.214 2808.31 809.255 2808.52 809.305C2808.62 809.33 2808.73 809.357 2808.86 809.387C2808.92 809.401 2808.98 809.417 2809.04 809.433C2809.08 809.441 2809.11 809.449 2809.14 809.457C2809.16 809.461 2809.18 809.465 2809.19 809.47C2809.2 809.472 2809.21 809.475 2809.22 809.476C2809.23 809.479 2809.24 809.482 2790.55 884.253C2771.86 959.024 2771.87 959.027 2771.88 959.03C2771.89 959.031 2771.9 959.035 2771.91 959.037C2771.93 959.041 2771.95 959.046 2771.96 959.05C2772 959.059 2772.04 959.068 2772.07 959.077C2772.15 959.095 2772.22 959.114 2772.3 959.134C2772.46 959.173 2772.63 959.214 2772.81 959.257C2773.18 959.343 2773.58 959.437 2774.03 959.538C2774.92 959.74 2775.99 959.969 2777.21 960.214C2779.65 960.702 2782.76 961.258 2786.43 961.784C2793.74 962.828 2803.59 963.791 2815.21 963.791V809.648ZM2790.55 961.325H2791.78V807.181H2790.55V961.325ZM2814.85 810.715C2806.86 808.208 2800.55 802.612 2794.91 793.419C2792.16 788.92 2790.15 784.432 2788.72 780.752C2788 778.914 2787.48 777.419 2786.84 775.557C2786.7 775.159 2785.92 772.875 2785.1 770.759C2784.82 770.051 2783.48 766.555 2781.34 762.459C2780.47 760.789 2777.64 755.416 2772.79 749.429C2770.37 746.447 2765.4 740.733 2757.69 735.225C2750.28 729.936 2734.73 720.861 2712.86 720.861V875.004C2691.02 875.004 2675.49 865.937 2668.1 860.664C2660.41 855.173 2655.47 849.483 2653.07 846.533C2648.27 840.61 2645.5 835.332 2644.7 833.789C2642.69 829.947 2641.51 826.827 2641.43 826.611C2640.99 825.481 2640.71 824.646 2641.22 826.108C2641.86 827.964 2643.19 831.826 2645.02 836.539C2648.68 845.961 2654.53 859.354 2663.49 873.969C2681.29 903.004 2713.81 940.568 2768.71 957.791L2814.85 810.715ZM2712.86 720.861C2699.58 720.861 2689.45 724.269 2684.56 726.155C2679.11 728.26 2674.92 730.57 2672.47 732.015C2667.67 734.843 2663.96 737.681 2662.33 738.95C2659.03 741.516 2655.25 744.792 2653.77 746.058C2649.36 749.818 2645.53 752.994 2641.2 755.966C2632.05 762.242 2625.76 764.021 2621.61 764.021V918.165C2669.25 918.165 2706.12 898.363 2728.42 883.06C2739.81 875.241 2748.77 867.627 2753.85 863.295C2757.1 860.514 2757.23 860.418 2756.97 860.624C2756.85 860.713 2754.45 862.624 2750.72 864.819C2748.8 865.949 2745.1 868.016 2740.07 869.958C2735.6 871.68 2725.83 875.004 2712.86 875.004V720.861ZM2621.61 764.021C2612.91 764.021 2602.79 760.778 2591.67 743.868C2579.47 725.322 2569.2 693.356 2569.2 649.955H2415.06C2415.06 715.07 2430.07 778.673 2462.88 828.567C2496.77 880.097 2551.39 918.165 2621.61 918.165V764.021ZM2569.2 649.955C2569.2 636.45 2570.09 625.378 2571.55 616.716C2573.04 607.847 2574.83 603.273 2575.61 601.69C2576.29 600.302 2574.98 603.627 2569.74 607.244C2563.86 611.306 2557.94 612.343 2555.02 612.343V458.2C2529.28 458.2 2504.1 465.249 2482.15 480.409C2460.84 495.124 2446.66 514.635 2437.32 533.594C2419.57 569.637 2415.06 612.299 2415.06 649.955H2569.2ZM2555.02 612.343C2553.25 612.343 2549.39 611.898 2544.72 609.62C2540.18 607.406 2536.72 604.356 2534.36 601.445C2532.13 598.706 2530.86 596.095 2530.09 593.886C2529.4 591.911 2528.51 588.522 2528.51 583.364H2682.65C2682.65 557.738 2673.6 528.385 2653.99 504.243C2632.05 477.243 2597.83 458.2 2555.02 458.2V612.343ZM2528.51 583.364C2528.51 582.258 2529.24 578.538 2525.82 594.884C2522.85 609.09 2519.87 627.441 2519.87 653.654H2674.02C2674.02 640.406 2675.36 632.861 2676.7 626.412C2677.61 622.103 2682.65 602.968 2682.65 583.364H2528.51ZM2519.87 653.654C2519.87 687.546 2524.95 716.913 2533.36 740.309C2537.44 751.657 2543.17 764.017 2551.32 775.195C2555.33 780.686 2561.52 788.108 2570.35 794.88C2578.14 800.854 2595.55 812.114 2620.38 812.114V657.97C2643.35 657.97 2658.65 668.343 2664.14 672.559C2670.68 677.573 2674.4 682.365 2675.87 684.368C2678.93 688.571 2679.27 690.527 2678.41 688.156C2676.96 684.114 2674.02 672.788 2674.02 653.654H2519.87ZM2620.38 812.114C2641.85 812.114 2658.53 804.168 2669.51 796.486C2677.76 790.712 2684.44 783.676 2684.74 783.374L2575.74 674.378C2574.57 675.555 2574.78 675.329 2575.22 674.922C2575.73 674.448 2577.84 672.494 2581.11 670.207C2584.55 667.802 2589.89 664.568 2597.04 662.017C2604.46 659.367 2612.37 657.97 2620.38 657.97V812.114ZM2683.49 784.598C2709.37 759.862 2723.54 730.15 2732.38 706.568C2740.54 684.77 2747.48 657.856 2751.39 644.789C2756.82 626.665 2759.64 622.54 2759.38 622.882C2755.17 628.327 2745.84 633.307 2738.76 633.307V479.163C2694.68 479.163 2660.23 499.095 2637.41 528.625C2618.53 553.052 2609.25 582.145 2603.73 600.553C2596.7 624.018 2593.85 636.951 2588.03 652.494C2582.87 666.253 2578.85 671.377 2577 673.154L2683.49 784.598ZM2738.76 633.307C2735.69 633.307 2732.45 632.711 2729.04 631.202C2725.62 629.692 2720.68 626.638 2716.15 620.817L2837.82 526.182C2811.97 492.945 2772.73 479.163 2738.76 479.163V633.307ZM2719.26 624.565C2712.34 616.741 2711.36 611.024 2712.82 615.506C2713.79 618.477 2715.17 623.945 2716.69 632.557C2719.74 649.909 2721.95 671.593 2724.32 695.962C2726.5 718.267 2728.96 744.823 2732.71 765.508C2734.48 775.264 2737.46 789.369 2743.23 802.645C2746.07 809.168 2751.65 820.425 2761.94 831.067C2773.22 842.721 2793.36 856.507 2821.38 856.507V702.363C2846.47 702.363 2863.92 714.791 2872.72 723.882C2880.54 731.962 2883.84 739.452 2884.58 741.158C2886.17 744.8 2885.66 745.071 2884.38 738.025C2882.04 725.106 2880.19 706.19 2877.74 681.019C2875.49 657.912 2872.77 630.116 2868.5 605.849C2866.35 593.651 2863.48 580.275 2859.33 567.601C2855.68 556.437 2848.72 538.273 2834.71 522.433L2719.26 624.565ZM2821.38 856.507C2842.04 856.507 2857.36 848.712 2864.25 844.734C2872.3 840.091 2878.66 834.844 2883.08 830.831C2892 822.722 2899.89 813.3 2906.38 804.677C2919.7 786.983 2933.31 764.396 2944.99 740.304L2806.29 673.055C2798.24 689.656 2789.65 703.448 2783.24 711.959C2779.87 716.438 2778.51 717.575 2779.41 716.749C2779.82 716.377 2782.48 713.953 2787.21 711.223C2789.69 709.795 2793.61 707.771 2798.82 706.018C2803.96 704.287 2811.72 702.363 2821.38 702.363V856.507ZM2943.84 742.575C2946.83 736.888 2948.75 733.43 2950.43 730.792C2952.05 728.244 2952.44 728.079 2951.56 728.961C2950.47 730.058 2947.75 732.41 2943.38 734.343C2938.83 736.353 2934.78 736.892 2932.36 736.892V582.748C2849.93 582.748 2816.98 652.649 2807.44 670.783L2943.84 742.575ZM2932.36 736.892C2926.53 736.892 2921.53 735.265 2916.81 731.357C2914.01 729.037 2911.03 725.626 2908.82 721.08C2906.55 716.392 2905.85 712.068 2905.85 709.146H3059.99C3059.99 620.32 2982.88 582.748 2932.36 582.748V736.892ZM2905.85 709.146C2905.85 703.003 2906.95 701.065 2905.67 705.649C2904.74 709.006 2902.98 714.199 2900.16 720.832C2894.51 734.164 2885.91 750.184 2875.03 765.215C2850.65 798.882 2828.78 809.648 2815.21 809.648V963.791C2904 963.791 2965.99 902.417 2999.87 855.622C3018.12 830.421 3032.26 804.129 3042.06 781.044C3050.41 761.367 3059.99 733.96 3059.99 709.146H2905.85ZM3393.83 908.916L3368.62 981.748L3370.62 982.441L3372.66 983.023L3393.83 908.916ZM3297.65 531.572L3350.2 475.197L3298.88 427.356L3246.44 473.968L3297.65 531.572ZM3286.55 541.437L3235.34 483.833L3234.77 484.346L3234.2 484.869L3286.55 541.437ZM3092.94 759.705L3163.37 728.403L3162.66 726.803L3161.88 725.237L3092.94 759.705ZM3052.25 642.556L2994.25 591.803L2993.59 592.556L2992.95 593.326L3052.25 642.556ZM2900.57 763.404L2975.34 744.712L2974.07 739.637L2972.13 734.781L2900.57 763.404ZM2890.71 577.199L2959.64 611.666L2964.26 602.435L2966.28 592.314L2890.71 577.199ZM2986.89 559.935L2929.86 611.779L2981.92 669.043L3038.97 616.748L2986.89 559.935ZM3494.95 706.679L3428.86 667.026L3427.91 668.611L3427.04 670.239L3494.95 706.679ZM3552.91 735.659C3550.15 735.659 3548.01 735.278 3546.11 734.685C3544.13 734.065 3541.17 732.81 3537.89 730.224C3534.37 727.454 3531.04 723.556 3528.78 718.821C3526.53 714.102 3526.4 710.759 3526.4 710.379H3680.54C3680.54 667.8 3662.6 632.243 3633.28 609.146C3607.04 588.466 3576.63 581.515 3552.91 581.515V735.659ZM3526.4 710.379C3526.4 699.097 3529.43 693.547 3526.81 700.984C3525.37 705.077 3522.75 711.527 3518.76 719.876C3510.8 736.535 3499.07 757.319 3484.94 777.259C3470.55 797.557 3455.56 814.304 3441.73 825.247C3427.28 836.67 3420.57 836.777 3420.96 836.777V990.921C3468.83 990.921 3508.67 968.831 3537.35 946.149C3566.63 922.989 3591.33 893.723 3610.7 866.391C3630.33 838.7 3646.42 810.235 3657.85 786.316C3663.55 774.376 3668.51 762.705 3672.23 752.129C3674.77 744.899 3680.54 728.135 3680.54 710.379H3526.4ZM3420.96 836.777C3422.41 836.777 3423.26 836.876 3423.37 836.89C3423.51 836.906 3423.25 836.88 3422.51 836.732C3420.89 836.408 3418.57 835.829 3415 834.81L3372.66 983.023C3381.16 985.452 3400.38 990.921 3420.96 990.921V836.777ZM3419.04 836.084C3417.99 835.721 3413.82 836.044 3408.94 819.258C3403.12 799.246 3401.45 770.19 3401.99 730.066C3402.47 694.886 3404.92 646.899 3402.22 607.624C3399.72 571.13 3391.96 514.122 3350.2 475.197L3245.09 587.948C3239.71 582.934 3246.13 584.501 3248.44 618.18C3250.56 649.079 3248.47 682.866 3247.86 727.995C3247.32 768.18 3248.04 817.968 3260.92 862.272C3274.73 909.803 3305.54 959.914 3368.62 981.748L3419.04 836.084ZM3246.44 473.968L3235.34 483.833L3337.75 599.042L3348.85 589.176L3246.44 473.968ZM3234.2 484.869C3201.75 514.898 3182.27 552.004 3169.24 584.498C3156.42 616.445 3147.34 650.823 3140.33 675.22C3132.19 703.549 3126.97 717.712 3122.47 724.997C3120.5 728.193 3127.8 717.161 3142.27 717.161V871.305C3198.05 871.305 3233.71 838.231 3253.63 805.974C3271.02 777.806 3281.21 743.105 3288.48 717.792C3296.89 688.547 3303.22 664.504 3312.3 641.885C3321.15 619.812 3330.03 606.205 3338.89 598.005L3234.2 484.869ZM3142.27 717.161C3147.33 717.161 3152.77 718.783 3157.25 721.883C3161.6 724.886 3163.16 727.918 3163.37 728.403L3022.51 791.007C3043.31 837.797 3087.45 871.305 3142.27 871.305V717.161ZM3161.88 725.237C3165.67 732.821 3166.03 737.679 3165.34 733.832C3164.95 731.672 3164.44 727.812 3163.91 721.888C3162.84 709.991 3162.18 695.286 3161.46 678.961C3160.81 663.945 3160.07 646.312 3158.72 632.538C3158.1 626.186 3157 616.618 3154.59 607.319C3153.55 603.289 3150.91 593.713 3144.83 583.483C3140.53 576.266 3119.89 544.52 3076.91 544.52V698.664C3035.16 698.664 3015.64 667.823 3012.37 662.315C3007.29 653.795 3005.57 646.73 3005.36 645.914C3004.62 643.04 3004.84 642.702 3005.31 647.563C3006.16 656.217 3006.74 668.95 3007.47 685.689C3008.14 701.117 3008.94 719.553 3010.38 735.633C3011.1 743.697 3012.1 752.536 3013.6 760.963C3014.81 767.704 3017.44 781.04 3024.01 794.173L3161.88 725.237ZM3076.91 544.52C3059.83 544.52 3047.14 550.152 3043.18 551.957C3037.55 554.524 3033.08 557.294 3030.28 559.143C3024.56 562.916 3019.57 566.997 3015.95 570.132C3008.47 576.618 3000.73 584.391 2994.25 591.803L3110.25 693.308C3112.4 690.855 3115.14 688.147 3116.91 686.617C3117.91 685.744 3117.25 686.434 3115.15 687.818C3114.15 688.472 3111.32 690.298 3107.11 692.219C3104.93 693.211 3101.51 694.631 3097.11 695.877C3092.94 697.058 3085.88 698.664 3076.91 698.664V544.52ZM2992.95 593.326C2953.41 640.949 2940.46 702.27 2933.99 722.483C2929.32 737.085 2927.77 736.477 2931.09 732.852C2933.66 730.051 2937.55 727.048 2942.34 725.068C2946.84 723.208 2949.54 723.327 2948.66 723.327V877.471C2985.86 877.471 3019.58 864.442 3044.73 837.001C3065.82 813.993 3075.45 786.178 3080.79 769.489C3094.36 727.12 3096.83 709.519 3111.55 691.786L2992.95 593.326ZM2948.66 723.327C2953.24 723.327 2958.22 724.551 2962.63 726.824C2966.64 728.899 2969.01 731.22 2970.09 732.42C2971.12 733.581 2971.65 734.467 2971.99 735.107C2972.19 735.489 2972.51 736.127 2972.92 737.129C2973.08 737.511 2974.24 740.285 2975.34 744.712L2825.8 782.097C2829.48 796.828 2839.18 817.244 2855.1 835.082C2873.02 855.144 2904.2 877.471 2948.66 877.471V723.327ZM2972.13 734.781C2975.36 742.85 2975.72 748.576 2974.9 743.094C2974.52 740.605 2974.02 736.533 2973.45 730.756C2972.31 719.351 2971.14 704.103 2970.1 687.249C2967.98 653.275 2966.54 616.221 2966.54 595.696H2812.4C2812.4 620.798 2814.05 661.431 2816.25 696.822C2817.36 714.651 2818.66 732.004 2820.07 746.071C2820.76 753.031 2821.55 759.913 2822.46 765.964C2822.92 769.023 2824.55 780.876 2829.01 792.028L2972.13 734.781ZM2966.54 595.696C2966.54 593.452 2966.55 591.768 2966.56 590.274C2966.58 588.763 2966.6 588.037 2966.61 587.801C2966.63 587.349 2966.59 588.759 2966.24 591.165C2966.05 592.427 2965.67 594.741 2964.9 597.69C2964.21 600.375 2962.71 605.538 2959.64 611.666L2821.77 542.731C2815.8 554.664 2814.21 565.551 2813.75 568.666C2813.04 573.422 2812.78 577.684 2812.64 580.469C2812.38 585.937 2812.4 592.002 2812.4 595.696H2966.54ZM2966.28 592.314C2965.42 596.616 2963.63 600.548 2959.8 604.304C2957.58 606.478 2954.57 608.66 2950.82 610.241C2946.97 611.862 2943.55 612.343 2941.27 612.343V458.2C2862.49 458.2 2823.58 519.822 2815.13 562.084L2966.28 592.314ZM2941.27 612.343C2940.96 612.343 2938.79 612.296 2935.5 611.361C2932.07 610.386 2928.95 608.888 2926.49 607.301C2924.28 605.878 2923.36 604.865 2924.06 605.555C2924.42 605.898 2925.01 606.503 2926.02 607.583C2927.09 608.723 2928.19 609.943 2929.86 611.779L3043.92 508.09C3039.4 503.12 3027.02 488.704 3009.99 477.732C2989.75 464.689 2966.74 458.2 2941.27 458.2V612.343ZM3038.97 616.748C3052.61 604.247 3060.23 598.693 3065.79 595.767C3069.68 593.721 3073.12 592.613 3079.38 592.613V438.469C3011.2 438.469 2968.07 472.633 2934.81 503.121L3038.97 616.748ZM3079.38 592.613C3086.15 592.613 3089.66 593.546 3090.91 593.949C3092.09 594.325 3092.57 594.639 3092.96 594.91C3094 595.631 3094.32 595.941 3099.02 600.125C3100.41 601.364 3105.54 606.018 3111.84 610.244C3117.2 613.839 3134.09 624.675 3158.3 624.675V470.531C3180.35 470.531 3194.92 480.365 3197.67 482.207C3201.36 484.68 3203.57 486.829 3201.59 485.062C3199.54 483.234 3191.31 475.529 3180.79 468.235C3156.94 451.703 3124.17 438.469 3079.38 438.469V592.613ZM3158.3 624.675C3171.94 624.675 3189.9 621.008 3206.33 608.228C3222.09 595.967 3229.28 580.865 3232.5 571.205C3235.57 561.996 3236.21 554.293 3236.41 551.169C3236.54 549.279 3236.58 547.734 3236.59 546.82C3236.61 545.952 3236.6 545.182 3236.6 545.137H3082.46C3082.46 545.993 3082.43 543.652 3082.61 540.916C3082.78 538.369 3083.35 531.206 3086.26 522.46C3089.33 513.262 3096.28 498.545 3111.7 486.554C3127.78 474.044 3145.28 470.531 3158.3 470.531V624.675ZM3236.6 545.137C3236.6 554.391 3234.85 561.454 3234.56 562.698C3233.95 565.267 3233.33 567.227 3233.02 568.187C3232.38 570.179 3231.83 571.543 3231.7 571.875C3231.36 572.722 3231.3 572.793 3231.71 571.928C3232.45 570.357 3233.99 567.305 3236.32 563.206C3241.03 554.925 3247.98 544.159 3256.58 533.806C3265.35 523.25 3274.26 515.034 3282.47 509.827C3290.35 504.836 3295.56 503.826 3298.88 503.826V349.682C3221.06 349.682 3166.5 401.016 3138.01 435.311C3122.41 454.091 3110.48 472.69 3102.36 486.951C3098.28 494.124 3094.91 500.639 3092.35 506.048C3091.11 508.673 3089.8 511.587 3088.62 514.52C3088.07 515.895 3087.21 518.113 3086.36 520.757C3085.94 522.042 3085.25 524.277 3084.59 527.068C3084.24 528.534 3082.46 535.767 3082.46 545.137H3236.6ZM3298.88 503.826C3304.79 503.826 3313.07 505.072 3322.01 516.07C3333.12 529.737 3352.52 567.558 3352.52 659.82H3506.66C3506.66 549.845 3484.14 471.133 3441.61 418.826C3396.91 363.851 3339.83 349.682 3298.88 349.682V503.826ZM3352.52 659.82V736.275H3506.66V659.82H3352.52ZM3352.52 736.275C3352.52 766.101 3352.8 783.342 3353.45 793.439C3353.58 795.468 3354.07 807.733 3358.38 820.1C3360.57 826.358 3368.99 848.787 3394.17 862.774C3416.58 875.222 3444.28 872.538 3432.06 872.538V718.394C3431.67 718.394 3428.8 718.43 3430.96 718.402C3431.7 718.393 3434.26 718.361 3437.55 718.607C3444.82 719.148 3456.5 721.069 3469.03 728.029C3493.9 741.846 3502.03 763.9 3503.92 769.33C3506.37 776.331 3507.04 781.805 3507.13 782.448C3507.32 783.915 3507.34 784.526 3507.28 783.62C3507 779.228 3506.66 766.874 3506.66 736.275H3352.52ZM3432.06 872.538C3448.19 872.538 3460.42 867.626 3466.52 864.752C3473.27 861.574 3478.47 858.025 3481.8 855.545C3488.42 850.616 3493.72 845.34 3497.27 841.572C3504.69 833.698 3512.03 824.29 3518.7 815.002C3532.38 795.962 3547.99 770.837 3562.86 743.12L3427.04 670.239C3414.78 693.081 3402.65 712.35 3393.51 725.063C3388.78 731.652 3385.94 734.961 3385.11 735.835C3384.54 736.44 3386.2 734.546 3389.75 731.905C3391.54 730.569 3395.34 727.891 3400.85 725.297C3405.71 723.008 3416.86 718.394 3432.06 718.394V872.538ZM3561.04 746.333C3563.2 742.722 3565.33 739.048 3566.89 736.373C3568.61 733.435 3569.86 731.314 3571 729.488C3573.38 725.655 3573.87 725.414 3572.92 726.417C3571.53 727.876 3568.23 730.831 3563.06 733.12C3557.86 735.417 3553.91 735.659 3552.91 735.659V581.515C3513.96 581.515 3483.29 596.92 3461.07 620.352C3444.92 637.377 3432.13 661.583 3428.86 667.026L3561.04 746.333Z" fill="#FF91A1" mask="url(#path-1-outside-1_130_23)"/>
</svg>
