<svg width="4981" height="1441" viewBox="0 0 4981 1441" fill="none" xmlns="http://www.w3.org/2000/svg">
<g opacity="0.7">
<mask id="mask0_98_184" style="mask-type:luminance" maskUnits="userSpaceOnUse" x="0" y="0" width="2521" height="1441">
<path d="M2521 1440.58H0V-1.67241e-05H2521V1440.58Z" fill="white"/>
</mask>
<g mask="url(#mask0_98_184)">
<path d="M-187.311 1625.66H2708.32V-185.088H-187.311V1625.66ZM2712.06 1629.41H-191.063V-188.834H2712.06V1629.41Z" fill="white"/>
<path d="M2710.19 1357.23H-189.188V1353.48H2710.19V1357.23Z" fill="white"/>
<path d="M2710.19 1266.51H-189.188V1262.75H2710.19V1266.51Z" fill="white"/>
<path d="M2710.19 1175.79H-189.188V1172.03H2710.19V1175.79Z" fill="white"/>
<path d="M2710.19 1085.06H-189.188V1081.31H2710.19V1085.06Z" fill="white"/>
<path d="M2710.19 994.335H-189.188V990.58H2710.19V994.335Z" fill="white"/>
<path d="M2710.19 903.61H-189.188V899.864H2710.19V903.61Z" fill="white"/>
<path d="M2710.19 812.887H-189.188V809.135H2710.19V812.887Z" fill="white"/>
<path d="M2710.19 722.162H-189.188V718.411H2710.19V722.162Z" fill="white"/>
<path d="M2710.19 631.438H-189.188V627.687H2710.19V631.438Z" fill="white"/>
<path d="M2710.19 540.711H-189.188V536.956H2710.19V540.711Z" fill="white"/>
<path d="M2710.19 449.986H-189.188V446.231H2710.19V449.986Z" fill="white"/>
<path d="M2710.19 359.261H-189.188V355.506H2710.19V359.261Z" fill="white"/>
<path d="M2710.19 268.536H-189.188V264.79H2710.19V268.536Z" fill="white"/>
<path d="M2710.19 177.811H-189.188V174.065H2710.19V177.811Z" fill="white"/>
<path d="M2710.19 87.0867H-189.188V83.3405H2710.19V87.0867Z" fill="white"/>
<path d="M2448.49 1627.53H2444.73V-186.966H2448.49V1627.53Z" fill="white"/>
<path d="M2360.63 1627.53H2356.87V-186.966H2360.63V1627.53Z" fill="white"/>
<path d="M2272.77 1627.53H2269.01V-186.966H2272.77V1627.53Z" fill="white"/>
<path d="M2184.91 1627.53H2181.15V-186.966H2184.91V1627.53Z" fill="white"/>
<path d="M2097.05 1627.53H2093.29V-186.966H2097.05V1627.53Z" fill="white"/>
<path d="M2009.19 1627.53H2005.44V-186.966H2009.19V1627.53Z" fill="white"/>
<path d="M1921.33 1627.53H1917.58V-186.966H1921.33V1627.53Z" fill="white"/>
<path d="M1833.47 1627.53H1829.72V-186.966H1833.47V1627.53Z" fill="white"/>
<path d="M1745.61 1627.53H1741.86V-186.966H1745.61V1627.53Z" fill="white"/>
<path d="M1657.74 1627.53H1654V-186.966H1657.74V1627.53Z" fill="white"/>
<path d="M1569.88 1627.53H1566.14V-186.966H1569.88V1627.53Z" fill="white"/>
<path d="M1482.03 1627.53H1478.28V-186.966H1482.03V1627.53Z" fill="white"/>
<path d="M1394.17 1627.53H1390.41V-186.966H1394.17V1627.53Z" fill="white"/>
<path d="M1306.31 1627.53H1302.55V-186.966H1306.31V1627.53Z" fill="white"/>
<path d="M1218.45 1627.53H1214.69V-186.966H1218.45V1627.53Z" fill="white"/>
<path d="M1130.59 1627.53H1126.83V-186.966H1130.59V1627.53Z" fill="white"/>
<path d="M1042.73 1627.53H1038.98V-186.966H1042.73V1627.53Z" fill="white"/>
<path d="M954.871 1627.53H951.116V-186.966H954.871V1627.53Z" fill="white"/>
<path d="M867.006 1627.53H863.256V-186.966H867.006V1627.53Z" fill="white"/>
<path d="M779.148 1627.53H775.396V-186.966H779.148V1627.53Z" fill="white"/>
<path d="M691.288 1627.53H687.536V-186.966H691.288V1627.53Z" fill="white"/>
<path d="M603.428 1627.53H599.676V-186.966H603.428V1627.53Z" fill="white"/>
<path d="M515.568 1627.53H511.817V-186.966H515.568V1627.53Z" fill="white"/>
<path d="M427.709 1627.53H423.957V-186.966H427.709V1627.53Z" fill="white"/>
<path d="M339.849 1627.53H336.098V-186.966H339.849V1627.53Z" fill="white"/>
<path d="M251.989 1627.53H248.237V-186.966H251.989V1627.53Z" fill="white"/>
<path d="M164.13 1627.53H160.379V-186.966H164.13V1627.53Z" fill="white"/>
<path d="M76.267 1627.53H72.5156V-186.966H76.267V1627.53Z" fill="white"/>
</g>
<mask id="mask1_98_184" style="mask-type:luminance" maskUnits="userSpaceOnUse" x="2460" y="0" width="2521" height="1441">
<path d="M4981 1440.58H2460V-1.67241e-05H4981V1440.58Z" fill="white"/>
</mask>
<g mask="url(#mask1_98_184)">
<path d="M2272.69 1625.66H5168.32V-185.088H2272.69V1625.66ZM5172.06 1629.41H2268.94V-188.834H5172.06V1629.41Z" fill="white"/>
<path d="M5170.19 1357.23H2270.81V1353.48H5170.19V1357.23Z" fill="white"/>
<path d="M5170.19 1266.51H2270.81V1262.75H5170.19V1266.51Z" fill="white"/>
<path d="M5170.19 1175.79H2270.81V1172.03H5170.19V1175.79Z" fill="white"/>
<path d="M5170.19 1085.06H2270.81V1081.31H5170.19V1085.06Z" fill="white"/>
<path d="M5170.19 994.335H2270.81V990.58H5170.19V994.335Z" fill="white"/>
<path d="M5170.19 903.61H2270.81V899.864H5170.19V903.61Z" fill="white"/>
<path d="M5170.19 812.887H2270.81V809.135H5170.19V812.887Z" fill="white"/>
<path d="M5170.19 722.162H2270.81V718.411H5170.19V722.162Z" fill="white"/>
<path d="M5170.19 631.438H2270.81V627.687H5170.19V631.438Z" fill="white"/>
<path d="M5170.19 540.711H2270.81V536.956H5170.19V540.711Z" fill="white"/>
<path d="M5170.19 449.986H2270.81V446.231H5170.19V449.986Z" fill="white"/>
<path d="M5170.19 359.261H2270.81V355.506H5170.19V359.261Z" fill="white"/>
<path d="M5170.19 268.536H2270.81V264.79H5170.19V268.536Z" fill="white"/>
<path d="M5170.19 177.811H2270.81V174.065H5170.19V177.811Z" fill="white"/>
<path d="M5170.19 87.0867H2270.81V83.3405H5170.19V87.0867Z" fill="white"/>
<path d="M4908.49 1627.53H4904.73V-186.966H4908.49V1627.53Z" fill="white"/>
<path d="M4820.63 1627.53H4816.87V-186.966H4820.63V1627.53Z" fill="white"/>
<path d="M4732.77 1627.53H4729.01V-186.966H4732.77V1627.53Z" fill="white"/>
<path d="M4644.91 1627.53H4641.15V-186.966H4644.91V1627.53Z" fill="white"/>
<path d="M4557.05 1627.53H4553.29V-186.966H4557.05V1627.53Z" fill="white"/>
<path d="M4469.19 1627.53H4465.43V-186.966H4469.19V1627.53Z" fill="white"/>
<path d="M4381.33 1627.53H4377.57V-186.966H4381.33V1627.53Z" fill="white"/>
<path d="M4293.47 1627.53H4289.71V-186.966H4293.47V1627.53Z" fill="white"/>
<path d="M4205.61 1627.53H4201.86V-186.966H4205.61V1627.53Z" fill="white"/>
<path d="M4117.74 1627.53H4114V-186.966H4117.74V1627.53Z" fill="white"/>
<path d="M4029.88 1627.53H4026.14V-186.966H4029.88V1627.53Z" fill="white"/>
<path d="M3942.03 1627.53H3938.28V-186.966H3942.03V1627.53Z" fill="white"/>
<path d="M3854.17 1627.53H3850.41V-186.966H3854.17V1627.53Z" fill="white"/>
<path d="M3766.31 1627.53H3762.55V-186.966H3766.31V1627.53Z" fill="white"/>
<path d="M3678.45 1627.53H3674.69V-186.966H3678.45V1627.53Z" fill="white"/>
<path d="M3590.59 1627.53H3586.83V-186.966H3590.59V1627.53Z" fill="white"/>
<path d="M3502.73 1627.53H3498.97V-186.966H3502.73V1627.53Z" fill="white"/>
<path d="M3414.87 1627.53H3411.12V-186.966H3414.87V1627.53Z" fill="white"/>
<path d="M3327.01 1627.53H3323.26V-186.966H3327.01V1627.53Z" fill="white"/>
<path d="M3239.15 1627.53H3235.39V-186.966H3239.15V1627.53Z" fill="white"/>
<path d="M3151.29 1627.53H3147.54V-186.966H3151.29V1627.53Z" fill="white"/>
<path d="M3063.43 1627.53H3059.67V-186.966H3063.43V1627.53Z" fill="white"/>
<path d="M2975.57 1627.53H2971.82V-186.966H2975.57V1627.53Z" fill="white"/>
<path d="M2887.71 1627.53H2883.96V-186.966H2887.71V1627.53Z" fill="white"/>
<path d="M2799.85 1627.53H2796.1V-186.966H2799.85V1627.53Z" fill="white"/>
<path d="M2711.99 1627.53H2708.24V-186.966H2711.99V1627.53Z" fill="white"/>
<path d="M2624.13 1627.53H2620.38V-186.966H2624.13V1627.53Z" fill="white"/>
<path d="M2536.27 1627.53H2532.52V-186.966H2536.27V1627.53Z" fill="white"/>
</g>
</g>
</svg>
